<?xml version="1.0" encoding="UTF-8"?>
<!DOCTYPE svg PUBLIC "-//W3C//DTD SVG 1.1//EN" "http://www.w3.org/Graphics/SVG/1.1/DTD/svg11.dtd">
<svg xmlns="http://www.w3.org/2000/svg" version="1.1" width="499px" height="500px" style="shape-rendering:geometricPrecision; text-rendering:geometricPrecision; image-rendering:optimizeQuality; fill-rule:evenodd; clip-rule:evenodd" xmlns:xlink="http://www.w3.org/1999/xlink">
<g><path style="opacity:1" fill="#fee2bb" d="M 348.5,21.5 C 349.058,22.7899 350.058,23.6232 351.5,24C 354.758,25.4665 358.092,26.6332 361.5,27.5C 377.508,36.5015 392.841,46.5015 407.5,57.5C 410.089,58.4194 412.089,60.086 413.5,62.5C 417.845,67.8444 422.845,72.511 428.5,76.5C 431.101,80.7706 434.434,84.4372 438.5,87.5C 438.859,89.371 439.859,90.871 441.5,92C 440.549,92.7175 440.383,93.5509 441,94.5C 442.833,95.6667 444.333,97.1667 445.5,99C 445.167,99.3333 444.833,99.6667 444.5,100C 447.625,103.113 450.625,106.28 453.5,109.5C 450.924,110.883 451.258,111.717 454.5,112C 454.167,112.333 453.833,112.667 453.5,113C 458.099,115.544 460.932,119.377 462,124.5C 464.034,125.721 465.867,127.055 467.5,128.5C 467.786,131.834 467.786,135 467.5,138C 468.01,139.826 468.844,139.993 470,138.5C 473.554,147.143 477.554,155.476 482,163.5C 484.548,172.564 487.048,181.564 489.5,190.5C 490.265,191.612 491.265,192.279 492.5,192.5C 493.785,195.589 494.451,198.922 494.5,202.5C 495.055,208.154 495.555,213.82 496,219.5C 496.24,221.852 497.073,223.852 498.5,225.5C 498.5,242.5 498.5,259.5 498.5,276.5C 494.712,292.667 491.045,309 487.5,325.5C 485.065,329.799 483.398,334.466 482.5,339.5C 482.598,341.553 481.931,343.22 480.5,344.5C 476.775,349.956 474.109,355.956 472.5,362.5C 463.333,377.501 453.667,392.168 443.5,406.5C 437.802,412.197 432.468,418.197 427.5,424.5C 426.5,426.167 425.167,427.5 423.5,428.5C 419.564,430.766 416.231,433.766 413.5,437.5C 413.5,438.167 413.167,438.5 412.5,438.5C 408.428,440.208 405.095,442.874 402.5,446.5C 396.189,448.658 390.856,451.658 386.5,455.5C 385.914,455.291 385.414,454.957 385,454.5C 384.727,456.101 384.227,457.601 383.5,459C 378.097,461.692 373.097,464.858 368.5,468.5C 360.158,472.005 351.825,475.505 343.5,479C 342.429,479.852 341.429,480.685 340.5,481.5C 335.428,482.26 330.761,483.927 326.5,486.5C 323.848,486.41 321.515,487.076 319.5,488.5C 316.848,488.41 314.515,489.076 312.5,490.5C 309.171,490.215 306.171,490.882 303.5,492.5C 300.781,493.913 297.781,494.58 294.5,494.5C 281.029,495.83 267.529,496.83 254,497.5C 242.173,496.909 230.339,496.576 218.5,496.5C 218.167,496.5 217.833,496.5 217.5,496.5C 210.404,494.538 203.071,493.204 195.5,492.5C 192.237,490.432 188.57,489.432 184.5,489.5C 182.562,487.837 180.228,487.171 177.5,487.5C 174.313,484.075 170.313,482.741 165.5,483.5C 158.057,479.669 150.39,476.002 142.5,472.5C 141.614,471.675 141.281,470.675 141.5,469.5C 137.675,470.211 134.675,469.045 132.5,466C 130.655,464.872 128.655,464.372 126.5,464.5C 126.5,463.5 126.5,462.5 126.5,461.5C 124.833,461.5 123.167,461.5 121.5,461.5C 121.5,460.5 121.5,459.5 121.5,458.5C 116.598,457.723 113.098,455.056 111,450.5C 109.84,452.797 108.84,452.464 108,449.5C 107.667,449.833 107.333,450.167 107,450.5C 104.24,447.371 100.74,445.704 96.5,445.5C 91.9568,443.628 88.2901,440.628 85.5,436.5C 78.0916,428.425 70.4249,420.758 62.5,413.5C 57.7469,409.083 53.7469,404.083 50.5,398.5C 49.8535,396.844 49.1869,395.177 48.5,393.5C 48.6082,392.558 48.9415,391.725 49.5,391C 47.8231,389.005 46.3231,386.839 45,384.5C 43.9887,385.337 42.8221,385.67 41.5,385.5C 40.7063,382.198 40.0396,378.865 39.5,375.5C 38.0222,375.762 36.6888,375.429 35.5,374.5C 32.7256,369.271 29.7256,364.271 26.5,359.5C 24.9083,352.986 22.2416,346.986 18.5,341.5C 16.0122,333.37 13.3455,325.37 10.5,317.5C 7.03752,303.018 4.53752,288.351 3,273.5C 2.33333,257.5 2.33333,241.5 3,225.5C 4.48345,218.236 5.31679,210.902 5.5,203.5C 8.34697,191.792 11.6803,180.125 15.5,168.5C 16.9348,167.21 17.9348,165.544 18.5,163.5C 19.931,163.023 21.2643,162.357 22.5,161.5C 21.9747,160.808 21.3081,160.308 20.5,160C 21.2822,157.26 21.7822,154.426 22,151.5C 26.9796,143.208 31.1463,134.541 34.5,125.5C 36.0002,121.827 38.0002,118.494 40.5,115.5C 61.5423,85.4575 87.209,60.1242 117.5,39.5C 120.843,38.941 123.843,37.6077 126.5,35.5C 127.442,35.6082 128.275,35.9415 129,36.5C 134.214,33.1375 139.381,29.6375 144.5,26C 146.833,25.6667 149.167,25.3333 151.5,25C 158.628,21.6983 165.628,18.5317 172.5,15.5C 175.833,13.8333 179.167,12.1667 182.5,10.5C 188.17,10.0826 193.503,8.74929 198.5,6.5C 235.685,0.450698 272.685,1.28403 309.5,9C 322.799,12.7126 335.799,16.8793 348.5,21.5 Z"/></g>
<g><path style="opacity:0.251" fill="#fcf7ee" d="M 348.5,21.5 C 335.799,16.8793 322.799,12.7126 309.5,9C 272.685,1.28403 235.685,0.450698 198.5,6.5C 246.344,-3.52033 293.344,-0.0203334 339.5,17C 342.823,18.0399 345.823,19.5399 348.5,21.5 Z"/></g>
<g><path style="opacity:0.518" fill="#fcf7ee" d="M 198.5,6.5 C 193.503,8.74929 188.17,10.0826 182.5,10.5C 187.582,8.56285 192.915,7.22951 198.5,6.5 Z"/></g>
<g><path style="opacity:0.78" fill="#fbf4e7" d="M 182.5,10.5 C 179.167,12.1667 175.833,13.8333 172.5,15.5C 167.761,16.185 163.094,17.185 158.5,18.5C 166.085,14.8604 174.085,12.1937 182.5,10.5 Z"/></g>
<g><path style="opacity:0.999" fill="#fbe9cc" d="M 172.5,15.5 C 165.628,18.5317 158.628,21.6983 151.5,25C 149.167,25.3333 146.833,25.6667 144.5,26C 139.381,29.6375 134.214,33.1375 129,36.5C 128.275,35.9415 127.442,35.6082 126.5,35.5C 123.843,37.6077 120.843,38.941 117.5,39.5C 120.976,36.3768 124.976,34.0435 129.5,32.5C 133.145,31.0127 136.812,29.5127 140.5,28C 141.381,27.2917 142.047,26.4584 142.5,25.5C 147.541,22.6493 152.875,20.316 158.5,18.5C 163.094,17.185 167.761,16.185 172.5,15.5 Z"/></g>
<g><path style="opacity:0.208" fill="#fcf6ec" d="M 348.5,21.5 C 353.251,22.7105 357.584,24.7105 361.5,27.5C 358.092,26.6332 354.758,25.4665 351.5,24C 350.058,23.6232 349.058,22.7899 348.5,21.5 Z"/></g>
<g><path style="opacity:0.231" fill="#fcf7ee" d="M 361.5,27.5 C 378.549,35.0145 393.882,45.0145 407.5,57.5C 392.841,46.5015 377.508,36.5015 361.5,27.5 Z"/></g>
<g><path style="opacity:0.149" fill="#fcf6ed" d="M 142.5,25.5 C 142.047,26.4584 141.381,27.2917 140.5,28C 136.812,29.5127 133.145,31.0127 129.5,32.5C 133.347,29.4074 137.68,27.0741 142.5,25.5 Z"/></g>
<g><path style="opacity:1" fill="#4f5b52" d="M 282.5,43.5 C 286.231,46.7093 287.731,50.7093 287,55.5C 286.051,58.1997 284.217,59.033 281.5,58C 279.434,50.1331 274.434,47.1331 266.5,49C 263.007,50.4781 262.674,52.4781 265.5,55C 272.624,58.9804 279.124,63.8137 285,69.5C 285.731,73.9844 285.231,78.3178 283.5,82.5C 281.968,84.5207 279.968,86.0207 277.5,87C 273.833,87.6667 270.167,87.6667 266.5,87C 263.5,85.3333 260.5,83.6667 257.5,82C 253.355,78.5259 253.522,75.6925 258,73.5C 262.67,75.9192 267.503,77.9192 272.5,79.5C 275.362,79.6358 277.029,78.3024 277.5,75.5C 276.441,72.9318 274.774,70.7651 272.5,69C 265.646,66.0113 260.146,61.5113 256,55.5C 255.333,52.8333 255.333,50.1667 256,47.5C 260.018,41.4637 265.518,39.297 272.5,41C 275.929,41.5334 279.262,42.3668 282.5,43.5 Z"/></g>
<g><path style="opacity:0.31" fill="#fcf6ed" d="M 117.5,39.5 C 87.209,60.1242 61.5423,85.4575 40.5,115.5C 60.2134,84.1199 85.88,58.7865 117.5,39.5 Z"/></g>
<g><path style="opacity:1" fill="#535e54" d="M 309.5,49.5 C 315.5,49.3304 320.833,51.1637 325.5,55C 329.5,55.3333 333.5,55.6667 337.5,56C 341.041,58.2825 341.374,60.9491 338.5,64C 334.514,64.4988 330.514,64.6655 326.5,64.5C 322.867,76.5979 318.533,88.4312 313.5,100C 310.143,101.141 308.143,99.9746 307.5,96.5C 310.743,84.8512 314.41,73.3512 318.5,62C 315.52,59.4066 312.353,56.9066 309,54.5C 308.36,52.735 308.527,51.0683 309.5,49.5 Z"/></g>
<g><path style="opacity:1" fill="#f1debb" d="M 282.5,43.5 C 286.497,43.9999 289.164,46.1666 290.5,50C 289.903,51.6282 290.237,53.2949 291.5,55C 288.454,58.7345 284.454,60.5679 279.5,60.5C 281.378,62.7542 283.544,64.7542 286,66.5C 286.253,71.039 286.753,75.539 287.5,80C 287.37,81.0588 286.87,81.8921 286,82.5C 285.23,81.4019 284.397,81.4019 283.5,82.5C 285.231,78.3178 285.731,73.9844 285,69.5C 279.124,63.8137 272.624,58.9804 265.5,55C 262.674,52.4781 263.007,50.4781 266.5,49C 274.434,47.1331 279.434,50.1331 281.5,58C 284.217,59.033 286.051,58.1997 287,55.5C 287.731,50.7093 286.231,46.7093 282.5,43.5 Z"/></g>
<g><path style="opacity:0.012" fill="#fcf6ec" d="M 413.5,62.5 C 419.129,66.4608 424.129,71.1275 428.5,76.5C 422.845,72.511 417.845,67.8444 413.5,62.5 Z"/></g>
<g><path style="opacity:1" fill="#4a5a53" d="M 172.5,92.5 C 171.4,91.3951 170.733,90.0618 170.5,88.5C 167.451,79.966 163.951,71.6327 160,63.5C 159.506,61.8659 159.34,60.1992 159.5,58.5C 161.144,58.2865 162.644,58.6198 164,59.5C 166.793,69.5243 170.959,79.0243 176.5,88C 177.5,88.5 178.5,89 179.5,89.5C 186.903,85.1437 194.903,82.8103 203.5,82.5C 203.5,83.8333 203.5,85.1667 203.5,86.5C 199.582,86.7285 195.916,87.7285 192.5,89.5C 189.976,88.1338 188.309,88.9672 187.5,92C 182.496,93.458 177.496,93.6247 172.5,92.5 Z"/></g>
<g><path style="opacity:1" fill="#595f51" d="M 168.5,65.5 C 171.144,72.9562 174.477,80.1228 178.5,87C 185.7,84.7705 193.034,82.6039 200.5,80.5C 204.991,80.8118 206.324,82.9784 204.5,87C 195.983,90.3391 187.316,93.1724 178.5,95.5C 177.075,95.3767 175.742,95.0434 174.5,94.5C 173.5,94.1667 172.833,93.5 172.5,92.5C 177.496,93.6247 182.496,93.458 187.5,92C 188.309,88.9672 189.976,88.1338 192.5,89.5C 195.916,87.7285 199.582,86.7285 203.5,86.5C 203.5,85.1667 203.5,83.8333 203.5,82.5C 194.903,82.8103 186.903,85.1437 179.5,89.5C 178.5,89 177.5,88.5 176.5,88C 170.959,79.0243 166.793,69.5243 164,59.5C 162.644,58.6198 161.144,58.2865 159.5,58.5C 159.34,60.1992 159.506,61.8659 160,63.5C 163.951,71.6327 167.451,79.966 170.5,88.5C 165.307,79.4353 160.974,69.9353 157.5,60C 158.447,56.9277 160.447,55.9277 163.5,57C 165.556,59.6141 167.223,62.4475 168.5,65.5 Z"/></g>
<g><path style="opacity:0.549" fill="#fcf6ee" d="M 428.5,76.5 C 432.566,79.5628 435.899,83.2294 438.5,87.5C 434.434,84.4372 431.101,80.7706 428.5,76.5 Z"/></g>
<g><path style="opacity:1" fill="#f1dfbd" d="M 168.5,65.5 C 169.497,65.4701 170.164,65.9701 170.5,67C 172.977,72.7694 175.644,78.4361 178.5,84C 185.024,84.0335 191.024,82.2001 196.5,78.5C 199.002,78.6213 201.668,78.7879 204.5,79C 206.487,81.4699 206.987,84.3033 206,87.5C 203.957,88.5794 202.624,90.246 202,92.5C 200.951,91.4829 199.784,91.3162 198.5,92C 195.884,92.8324 193.384,94.3324 191,96.5C 187.248,95.6398 183.415,95.6398 179.5,96.5C 177.36,96.4439 175.694,95.7773 174.5,94.5C 175.742,95.0434 177.075,95.3767 178.5,95.5C 187.316,93.1724 195.983,90.3391 204.5,87C 206.324,82.9784 204.991,80.8118 200.5,80.5C 193.034,82.6039 185.7,84.7705 178.5,87C 174.477,80.1228 171.144,72.9562 168.5,65.5 Z"/></g>
<g><path style="opacity:1" fill="#4f5c52" d="M 145.5,80.5 C 147.45,88.6169 145.784,95.9502 140.5,102.5C 147.445,103.929 154.445,105.095 161.5,106C 165.439,106.977 166.439,109.311 164.5,113C 162.833,113.167 161.167,113.333 159.5,113.5C 151.876,112.1 144.209,111.6 136.5,112C 138.698,115.023 141.031,117.856 143.5,120.5C 145.483,125.563 143.817,127.73 138.5,127C 134.333,121.5 129.5,116.667 124,112.5C 120.433,106.264 116.1,100.597 111,95.5C 109.627,93.3046 109.294,90.9712 110,88.5C 117.679,79.4426 127.513,75.6092 139.5,77C 141.692,77.926 143.692,79.0927 145.5,80.5 Z"/></g>
<g><path style="opacity:1" fill="#4f5c52" d="M 368.5,90.5 C 374.816,88.5062 381.149,86.5062 387.5,84.5C 390.975,85.1432 392.141,87.1432 391,90.5C 379.891,95.4063 368.724,100.24 357.5,105C 355.768,106.972 354.435,109.139 353.5,111.5C 351.189,114.767 348.856,118.1 346.5,121.5C 342.861,123.44 340.861,122.44 340.5,118.5C 344.641,110.219 348.807,101.886 353,93.5C 354.379,85.9847 356.379,78.6513 359,71.5C 361.034,68.141 363.368,67.8076 366,70.5C 365.175,76.8347 364.008,83.168 362.5,89.5C 362.833,90.8333 363.167,92.1667 363.5,93.5C 365.396,92.7255 367.063,91.7255 368.5,90.5 Z"/></g>
<g><path style="opacity:1" fill="#f2dfbd" d="M 368.5,90.5 C 367.063,91.7255 365.396,92.7255 363.5,93.5C 363.167,92.1667 362.833,90.8333 362.5,89.5C 364.008,83.168 365.175,76.8347 366,70.5C 363.368,67.8076 361.034,68.141 359,71.5C 356.379,78.6513 354.379,85.9847 353,93.5C 348.807,101.886 344.641,110.219 340.5,118.5C 340.861,122.44 342.861,123.44 346.5,121.5C 348.856,118.1 351.189,114.767 353.5,111.5C 353.122,118.249 349.955,122.916 344,125.5C 342.168,124.142 340.335,123.808 338.5,124.5C 338.693,123.312 338.193,121.978 337,120.5C 336.667,120.833 336.333,121.167 336,121.5C 335.911,119.887 336.745,118.72 338.5,118C 336.964,116.401 336.464,114.567 337,112.5C 337.317,114.301 337.984,114.634 339,113.5C 342.04,107.379 345.707,101.712 350,96.5C 351.338,91.3523 352.838,86.1856 354.5,81C 353.777,75.2737 355.944,70.107 361,65.5C 363.932,66.3728 366.765,67.5395 369.5,69C 368.577,71.0408 368.244,73.2075 368.5,75.5C 369.552,75.3505 370.552,75.5172 371.5,76C 369.479,76.513 367.979,77.6797 367,79.5C 365.846,83.104 365.013,86.7707 364.5,90.5C 365.833,90.5 367.167,90.5 368.5,90.5 Z"/></g>
<g><path style="opacity:1" fill="#edddbc" d="M 130.5,84.5 C 132.857,84.3367 135.19,84.5034 137.5,85C 137.633,92.2305 134.633,98.0639 128.5,102.5C 124.914,99.4875 121.914,95.9875 119.5,92C 120.101,90.395 121.101,89.0616 122.5,88C 125.158,86.522 127.825,85.3554 130.5,84.5 Z"/></g>
<g><path style="opacity:1" fill="#fde3bb" d="M 129.5,86.5 C 131.833,86.5 134.167,86.5 136.5,86.5C 134.467,90.242 132.801,94.242 131.5,98.5C 129.61,98.7035 128.11,98.0368 127,96.5C 126.667,96.8333 126.333,97.1667 126,97.5C 125.086,95.3359 123.919,93.3359 122.5,91.5C 124.375,89.0736 126.709,87.4069 129.5,86.5 Z"/></g>
<g><path style="opacity:0.999" fill="#fbebd1" d="M 438.5,87.5 C 445.222,93.7255 451.056,100.726 456,108.5C 460.11,115.058 463.943,121.725 467.5,128.5C 465.867,127.055 464.034,125.721 462,124.5C 460.932,119.377 458.099,115.544 453.5,113C 453.833,112.667 454.167,112.333 454.5,112C 451.258,111.717 450.924,110.883 453.5,109.5C 450.625,106.28 447.625,103.113 444.5,100C 444.833,99.6667 445.167,99.3333 445.5,99C 444.333,97.1667 442.833,95.6667 441,94.5C 440.383,93.5509 440.549,92.7175 441.5,92C 439.859,90.871 438.859,89.371 438.5,87.5 Z"/></g>
<g><path style="opacity:1" fill="#e9dabb" d="M 145.5,80.5 C 146.8,82.223 147.467,84.3897 147.5,87C 147.873,92.0446 146.539,96.5446 143.5,100.5C 145.657,101.79 147.99,102.624 150.5,103C 155.897,103.227 161.231,103.894 166.5,105C 168.458,108.557 167.792,111.89 164.5,115C 157.998,114.945 151.498,114.445 145,113.5C 143.5,113.833 142,114.167 140.5,114.5C 141.99,115.826 143.324,117.326 144.5,119C 143.944,119.383 143.611,119.883 143.5,120.5C 141.031,117.856 138.698,115.023 136.5,112C 144.209,111.6 151.876,112.1 159.5,113.5C 161.167,113.333 162.833,113.167 164.5,113C 166.439,109.311 165.439,106.977 161.5,106C 154.445,105.095 147.445,103.929 140.5,102.5C 145.784,95.9502 147.45,88.6169 145.5,80.5 Z"/></g>
<g><path style="opacity:1" fill="#515c52" d="M 397.5,125.5 C 393.095,128.396 389.095,131.896 385.5,136C 389.399,141.656 393.399,147.156 397.5,152.5C 398.537,154.738 398.703,157.071 398,159.5C 396.186,160.76 394.353,160.76 392.5,159.5C 386.103,152.535 381.103,144.702 377.5,136C 377.993,133.181 379.16,130.681 381,128.5C 388.537,121.294 396.371,114.46 404.5,108C 409,107.167 410.833,109 410,113.5C 405.663,117.401 401.496,121.401 397.5,125.5 Z"/></g>
<g><path style="opacity:1" fill="#505c52" d="M 88.5,109.5 C 90.1992,109.34 91.8659,109.506 93.5,110C 106.596,119.26 119.262,129.093 131.5,139.5C 132.883,143.954 131.217,145.787 126.5,145C 123.833,143.333 121.167,141.667 118.5,140C 108.579,130.742 98.0792,122.242 87,114.5C 86.3872,112.505 86.8872,110.838 88.5,109.5 Z"/></g>
<g><path style="opacity:1" fill="#eddcbc" d="M 397.5,125.5 C 395.873,127.63 394.04,129.63 392,131.5C 391.383,132.449 391.549,133.282 392.5,134C 391.167,134.667 390.167,135.667 389.5,137C 392.326,142.153 394.992,147.319 397.5,152.5C 393.399,147.156 389.399,141.656 385.5,136C 389.095,131.896 393.095,128.396 397.5,125.5 Z"/></g>
<g><path style="opacity:1" fill="#fceace" d="M 467.5,128.5 C 479.683,148.22 488.016,169.553 492.5,192.5C 491.265,192.279 490.265,191.612 489.5,190.5C 487.048,181.564 484.548,172.564 482,163.5C 477.554,155.476 473.554,147.143 470,138.5C 468.844,139.993 468.01,139.826 467.5,138C 467.786,135 467.786,131.834 467.5,128.5 Z"/></g>
<g><path style="opacity:1" fill="#f2ddbc" d="M 309.5,164.5 C 296.451,158.596 282.784,154.929 268.5,153.5C 256.267,152.11 243.933,152.443 231.5,154.5C 235.109,153.335 238.776,152.168 242.5,151C 255.744,150.018 268.91,150.518 282,152.5C 283.764,152.456 285.431,152.122 287,151.5C 287.915,152.328 288.581,153.328 289,154.5C 289.333,153.833 289.667,153.167 290,152.5C 292.405,155.628 295.405,156.628 299,155.5C 301.259,158.049 304.092,159.716 307.5,160.5C 308.853,161.524 309.52,162.857 309.5,164.5 Z"/></g>
<g><path style="opacity:1" fill="#505c52" d="M 75.5,136.5 C 77.8568,136.337 80.1902,136.503 82.5,137C 84.5763,138.884 84.9097,141.051 83.5,143.5C 74.6834,144.815 68.6834,149.648 65.5,158C 66.9499,162.465 69.6166,166.131 73.5,169C 76.8333,171 80.1667,173 83.5,175C 98.2032,178.627 104.037,173.127 101,158.5C 100.586,158.043 100.086,157.709 99.5,157.5C 97.2887,160.756 94.9554,163.922 92.5,167C 89.4428,167.981 87.4428,166.981 86.5,164C 97.0276,138.682 105.028,139.349 110.5,166C 109.971,175.723 104.971,181.723 95.5,184C 81.3203,183.83 69.4869,178.33 60,167.5C 57.6261,163.106 56.9595,158.44 58,153.5C 61.7699,145.561 67.6032,139.895 75.5,136.5 Z"/></g>
<g><path style="opacity:1" fill="#7d817e" d="M 268.5,153.5 C 282.784,154.929 296.451,158.596 309.5,164.5C 328.508,174.664 344.675,188.331 358,205.5C 359.193,207.886 360.36,210.22 361.5,212.5C 364.398,221.65 368.565,230.317 374,238.5C 379.49,252.801 383.656,267.468 386.5,282.5C 386.5,283.5 386.5,284.5 386.5,285.5C 386.285,287.179 386.952,288.179 388.5,288.5C 388.575,291.206 388.908,293.873 389.5,296.5C 388.351,296.791 387.684,297.624 387.5,299C 387.528,300.07 387.861,300.903 388.5,301.5C 389.466,309.08 389.799,316.747 389.5,324.5C 381.613,323.521 375.28,326.021 370.5,332C 368.435,333.542 366.435,333.709 364.5,332.5C 364.699,304.443 360.866,276.776 353,249.5C 350.392,244.603 347.559,239.937 344.5,235.5C 333.833,213.5 317.5,197.167 295.5,186.5C 286.978,181.253 277.645,178.253 267.5,177.5C 259.344,176.343 251.01,176.177 242.5,177C 240.942,177.21 239.609,177.71 238.5,178.5C 213.053,184.949 192.386,198.615 176.5,219.5C 162.51,235.802 151.843,254.135 144.5,274.5C 137.983,292.208 133.65,310.541 131.5,329.5C 124.167,326.833 116.833,326.833 109.5,329.5C 109.5,328.167 109.5,326.833 109.5,325.5C 111.094,317.017 112.428,308.35 113.5,299.5C 113.489,297.955 113.156,296.622 112.5,295.5C 112.5,295.167 112.5,294.833 112.5,294.5C 113.265,291.904 113.599,289.237 113.5,286.5C 114.492,286.672 115.158,286.338 115.5,285.5C 115.782,281.426 116.448,277.426 117.5,273.5C 124.352,249.936 135.019,228.27 149.5,208.5C 159.902,196.763 171.235,186.096 183.5,176.5C 197.38,167.395 212.38,160.728 228.5,156.5C 241.707,153.998 255.04,152.998 268.5,153.5 Z"/></g>
<g><path style="opacity:1" fill="#a8a08d" d="M 268.5,153.5 C 255.04,152.998 241.707,153.998 228.5,156.5C 229.5,155.833 230.5,155.167 231.5,154.5C 243.933,152.443 256.267,152.11 268.5,153.5 Z"/></g>
<g><path style="opacity:1" fill="#fbecd5" d="M 34.5,125.5 C 31.1463,134.541 26.9796,143.208 22,151.5C 21.7822,154.426 21.2822,157.26 20.5,160C 21.3081,160.308 21.9747,160.808 22.5,161.5C 21.2643,162.357 19.931,163.023 18.5,163.5C 17.9348,165.544 16.9348,167.21 15.5,168.5C 16.038,166.883 16.3713,165.216 16.5,163.5C 20.9092,150.018 26.9092,137.351 34.5,125.5 Z"/></g>
<g><path style="opacity:1" fill="#f1dfbd" d="M 431.5,159.5 C 420.153,161.923 409.987,166.923 401,174.5C 399.48,178.375 399.146,182.375 400,186.5C 402.235,193.297 404.735,199.964 407.5,206.5C 406.85,206.804 406.183,207.137 405.5,207.5C 402.939,202.774 400.606,197.94 398.5,193C 399.059,192.275 399.392,191.442 399.5,190.5C 397.011,184.566 396.844,178.566 399,172.5C 400.57,171.386 401.903,170.053 403,168.5C 403.333,168.833 403.667,169.167 404,169.5C 405.833,168.333 407.333,166.833 408.5,165C 415.796,161.954 423.462,160.121 431.5,159.5 Z"/></g>
<g><path style="opacity:1" fill="#505c52" d="M 431.5,159.5 C 434.518,159.335 437.518,159.502 440.5,160C 446.211,167.247 451.044,175.081 455,183.5C 456.5,188.667 454.667,190.5 449.5,189C 445.856,184.864 442.856,180.364 440.5,175.5C 439.875,171.892 438.042,169.225 435,167.5C 431.888,168.483 428.722,169.15 425.5,169.5C 426.949,174.464 429.115,179.131 432,183.5C 432.602,186.221 432.435,188.887 431.5,191.5C 428.675,191.919 426.509,190.919 425,188.5C 423.234,183.802 421.067,179.302 418.5,175C 415.449,174.143 412.783,174.81 410.5,177C 408.643,178.182 407.643,179.849 407.5,182C 409.667,190.001 412.334,197.834 415.5,205.5C 413.751,209.85 411.085,210.516 407.5,207.5C 407.5,207.167 407.5,206.833 407.5,206.5C 404.735,199.964 402.235,193.297 400,186.5C 399.146,182.375 399.48,178.375 401,174.5C 409.987,166.923 420.153,161.923 431.5,159.5 Z"/></g>
<g><path style="opacity:1" fill="#d5c6ae" d="M 267.5,177.5 C 257.815,177.422 248.148,177.755 238.5,178.5C 239.609,177.71 240.942,177.21 242.5,177C 251.01,176.177 259.344,176.343 267.5,177.5 Z"/></g>
<g><path style="opacity:1" fill="#eadaba" d="M 440.5,175.5 C 438.743,174.708 437.409,173.375 436.5,171.5C 434.257,170.526 431.924,170.192 429.5,170.5C 428.789,174.325 429.955,177.325 433,179.5C 434.64,183.126 434.806,186.793 433.5,190.5C 433.043,191.298 432.376,191.631 431.5,191.5C 432.435,188.887 432.602,186.221 432,183.5C 429.115,179.131 426.949,174.464 425.5,169.5C 428.722,169.15 431.888,168.483 435,167.5C 438.042,169.225 439.875,171.892 440.5,175.5 Z"/></g>
<g><path style="opacity:1" fill="#fce1bb" d="M 295.5,186.5 C 317.5,197.167 333.833,213.5 344.5,235.5C 343.883,235.389 343.383,235.056 343,234.5C 342.51,235.793 342.343,237.127 342.5,238.5C 343.675,238.281 344.675,238.614 345.5,239.5C 350.993,249.197 354.16,259.531 355,270.5C 354.162,269.001 353.329,268.668 352.5,269.5C 349.353,262.048 346.019,254.715 342.5,247.5C 331.472,223.001 313.806,204.834 289.5,193C 275.642,187.635 261.309,185.635 246.5,187C 242.244,187.701 238.244,188.868 234.5,190.5C 224.241,192.958 215.241,197.625 207.5,204.5C 187.784,216.912 173.451,233.912 164.5,255.5C 159.432,264.311 155.432,273.644 152.5,283.5C 150.194,287.085 148.861,291.085 148.5,295.5C 146.374,302.369 144.707,309.369 143.5,316.5C 143.5,316.833 143.5,317.167 143.5,317.5C 141.613,322.872 140.613,328.539 140.5,334.5C 137.34,338.46 135.006,337.793 133.5,332.5C 133.335,326.638 133.669,320.804 134.5,315C 136.578,308.292 138.078,301.458 139,294.5C 139.51,291.995 141.01,290.495 143.5,290C 142.903,288.938 142.57,287.772 142.5,286.5C 143.298,282.511 143.965,278.511 144.5,274.5C 151.843,254.135 162.51,235.802 176.5,219.5C 177.857,218.315 179.357,217.315 181,216.5C 181.772,216.645 182.439,216.978 183,217.5C 183.536,215.131 184.703,213.131 186.5,211.5C 187.478,211.977 188.311,212.643 189,213.5C 189,212.167 189,210.833 189,209.5C 194.538,205.286 199.705,200.786 204.5,196C 205.662,195.173 206.829,194.34 208,193.5C 209.544,194.024 210.877,194.024 212,193.5C 214.481,189.686 217.981,187.519 222.5,187C 228.027,181.825 234.527,180.325 242,182.5C 242.779,181.272 243.779,180.272 245,179.5C 253.065,179.545 261.398,179.545 270,179.5C 278.836,180.725 287.336,183.058 295.5,186.5 Z"/></g>
<g><path style="opacity:1" fill="#f3debc" d="M 183.5,176.5 C 171.235,186.096 159.902,196.763 149.5,208.5C 149.343,207.127 149.51,205.793 150,204.5C 154.747,198.748 159.914,193.248 165.5,188C 164.044,187.577 163.544,186.744 164,185.5C 165,185.833 166,186.167 167,186.5C 171.673,181.749 177.173,178.416 183.5,176.5 Z"/></g>
<g><path style="opacity:1" fill="#c6c7c7" d="M 324.5,180.5 C 331.99,179.302 334.823,182.302 333,189.5C 329.952,193.01 326.619,193.343 323,190.5C 320.729,186.697 321.229,183.363 324.5,180.5 Z"/></g>
<g><path style="opacity:1" fill="#eeddbc" d="M 431.5,191.5 C 429.372,192.629 427.039,192.796 424.5,192C 422.519,188.71 420.186,185.71 417.5,183C 417.949,180.771 417.949,179.104 417.5,178C 412.859,176.349 410.193,177.849 409.5,182.5C 410.301,188.717 412.468,194.384 416,199.5C 416.667,203.167 416.667,206.833 416,210.5C 413.281,211.444 410.448,211.777 407.5,211.5C 407.5,210.167 407.5,208.833 407.5,207.5C 411.085,210.516 413.751,209.85 415.5,205.5C 412.334,197.834 409.667,190.001 407.5,182C 407.643,179.849 408.643,178.182 410.5,177C 412.783,174.81 415.449,174.143 418.5,175C 421.067,179.302 423.234,183.802 425,188.5C 426.509,190.919 428.675,191.919 431.5,191.5 Z"/></g>
<g><path style="opacity:0.498" fill="#fcf7ee" d="M 16.5,163.5 C 16.3713,165.216 16.038,166.883 15.5,168.5C 11.6803,180.125 8.34697,191.792 5.5,203.5C 7.31757,189.553 10.9842,176.22 16.5,163.5 Z"/></g>
<g><path style="opacity:1" fill="#ba9190" d="M 342.5,247.5 C 342.196,248.15 341.863,248.817 341.5,249.5C 351.168,270.871 357.001,292.537 359,314.5C 359.272,319.549 359.772,324.549 360.5,329.5C 355.559,327.683 350.559,326.349 345.5,325.5C 345.5,324.167 345.5,322.833 345.5,321.5C 344.5,321.5 343.5,321.5 342.5,321.5C 342.785,323.288 342.452,324.955 341.5,326.5C 338.87,327.804 336.537,329.47 334.5,331.5C 335.01,320.052 334.177,308.719 332,297.5C 329.667,287.833 327.333,278.167 325,268.5C 313.364,236.79 290.864,219.123 257.5,215.5C 241.265,215.627 226.931,220.794 214.5,231C 204.232,239.934 195.399,250.1 188,261.5C 175.564,283.245 168.064,306.578 165.5,331.5C 163.95,330.559 162.284,329.893 160.5,329.5C 158.436,328.132 156.102,327.132 153.5,326.5C 155.986,324.422 156.986,321.755 156.5,318.5C 158.833,318.5 161.167,318.5 163.5,318.5C 164.473,313.994 162.806,311.828 158.5,312C 157.944,312.383 157.611,312.883 157.5,313.5C 156.069,313.881 155.236,314.881 155,316.5C 153.031,314.613 150.698,313.28 148,312.5C 146.583,313.078 145.75,314.078 145.5,315.5C 145.158,316.338 144.492,316.672 143.5,316.5C 144.707,309.369 146.374,302.369 148.5,295.5C 149.313,293.739 150.313,292.072 151.5,290.5C 151.993,288.194 152.326,285.861 152.5,283.5C 155.432,273.644 159.432,264.311 164.5,255.5C 173.451,233.912 187.784,216.912 207.5,204.5C 211.536,204.647 214.869,203.147 217.5,200C 222.343,197.815 227.176,195.649 232,193.5C 233.31,192.87 234.144,191.87 234.5,190.5C 238.244,188.868 242.244,187.701 246.5,187C 261.309,185.635 275.642,187.635 289.5,193C 313.806,204.834 331.472,223.001 342.5,247.5 Z"/></g>
<g><path style="opacity:1" fill="#bdc0be" d="M 334.5,193.5 C 336.167,193.5 337.833,193.5 339.5,193.5C 339.65,197.161 338.15,198.161 335,196.5C 334.517,195.552 334.351,194.552 334.5,193.5 Z"/></g>
<g><path style="opacity:1" fill="#f4debd" d="M 267.5,177.5 C 277.645,178.253 286.978,181.253 295.5,186.5C 287.336,183.058 278.836,180.725 270,179.5C 261.398,179.545 253.065,179.545 245,179.5C 243.779,180.272 242.779,181.272 242,182.5C 234.527,180.325 228.027,181.825 222.5,187C 217.981,187.519 214.481,189.686 212,193.5C 210.877,194.024 209.544,194.024 208,193.5C 206.829,194.34 205.662,195.173 204.5,196C 199.705,200.786 194.538,205.286 189,209.5C 189,210.833 189,212.167 189,213.5C 188.311,212.643 187.478,211.977 186.5,211.5C 184.703,213.131 183.536,215.131 183,217.5C 182.439,216.978 181.772,216.645 181,216.5C 179.357,217.315 177.857,218.315 176.5,219.5C 192.386,198.615 213.053,184.949 238.5,178.5C 248.148,177.755 257.815,177.422 267.5,177.5 Z"/></g>
<g><path style="opacity:1" fill="#8c4545" d="M 262.5,192.5 C 266.485,192.629 267.818,194.463 266.5,198C 264.866,198.494 263.199,198.66 261.5,198.5C 261.325,196.379 261.659,194.379 262.5,192.5 Z"/></g>
<g><path style="opacity:1" fill="#8d4141" d="M 285.5,195.5 C 292.486,195.331 294.153,198.164 290.5,204C 283.416,204.475 281.749,201.642 285.5,195.5 Z"/></g>
<g><path style="opacity:1" fill="#c19b91" d="M 234.5,190.5 C 234.144,191.87 233.31,192.87 232,193.5C 227.176,195.649 222.343,197.815 217.5,200C 214.869,203.147 211.536,204.647 207.5,204.5C 215.241,197.625 224.241,192.958 234.5,190.5 Z"/></g>
<g><path style="opacity:1" fill="#8b4746" d="M 235.5,195.5 C 236.833,195.5 238.167,195.5 239.5,195.5C 239.5,197.167 239.5,198.833 239.5,200.5C 235.065,201.078 233.732,199.411 235.5,195.5 Z"/></g>
<g><path style="opacity:1" fill="#c4c7c6" d="M 324.5,198.5 C 325.5,198.5 326.5,198.5 327.5,198.5C 327.5,199.5 327.5,200.5 327.5,201.5C 326.5,201.5 325.5,201.5 324.5,201.5C 324.5,200.5 324.5,199.5 324.5,198.5 Z"/></g>
<g><path style="opacity:1" fill="#8c4040" d="M 245.5,202.5 C 252.158,201.344 254.158,203.844 251.5,210C 244.75,211.469 242.75,208.969 245.5,202.5 Z"/></g>
<g><path style="opacity:1" fill="#b7bbba" d="M 332.5,205.5 C 333.833,205.5 335.167,205.5 336.5,205.5C 336.5,206.833 336.5,208.167 336.5,209.5C 335.167,209.5 333.833,209.5 332.5,209.5C 332.5,208.167 332.5,206.833 332.5,205.5 Z"/></g>
<g><path style="opacity:1" fill="#905655" d="M 270.5,205.5 C 271.5,205.5 272.5,205.5 273.5,205.5C 273.5,206.833 273.5,208.167 273.5,209.5C 272.5,209.5 271.5,209.5 270.5,209.5C 270.5,208.167 270.5,206.833 270.5,205.5 Z"/></g>
<g><path style="opacity:1" fill="#8f4544" d="M 206.5,205.5 C 212.989,204.632 215.489,207.299 214,213.5C 210.667,217.5 207.333,217.5 204,213.5C 203.018,210.225 203.851,207.559 206.5,205.5 Z"/></g>
<g><path style="opacity:1" fill="#8e5151" d="M 229.5,209.5 C 231.912,209.694 232.912,211.027 232.5,213.5C 231.167,213.5 229.833,213.5 228.5,213.5C 228.433,212.041 228.766,210.708 229.5,209.5 Z"/></g>
<g><path style="opacity:1" fill="#f5ddbe" d="M 334.5,331.5 C 333.89,332.391 333.557,333.391 333.5,334.5C 332.883,334.611 332.383,334.944 332,335.5C 330.145,320.804 328.145,306.138 326,291.5C 324.01,284.318 321.843,277.318 319.5,270.5C 316.981,260.335 311.981,251.668 304.5,244.5C 297.797,234.797 288.797,227.963 277.5,224C 266.017,220.62 254.35,219.786 242.5,221.5C 240,222.359 237.667,223.359 235.5,224.5C 215.378,233.122 200.211,247.122 190,266.5C 185.535,277.756 181.368,289.09 177.5,300.5C 172.796,311.844 170.296,323.844 170,336.5C 169.617,335.944 169.117,335.611 168.5,335.5C 167.789,333.97 166.789,332.637 165.5,331.5C 168.064,306.578 175.564,283.245 188,261.5C 195.399,250.1 204.232,239.934 214.5,231C 226.931,220.794 241.265,215.627 257.5,215.5C 290.864,219.123 313.364,236.79 325,268.5C 327.333,278.167 329.667,287.833 332,297.5C 334.177,308.719 335.01,320.052 334.5,331.5 Z"/></g>
<g><path style="opacity:1" fill="#c3c5c4" d="M 144.5,219.5 C 149.188,218.415 152.188,220.081 153.5,224.5C 153.21,228.124 151.21,230.124 147.5,230.5C 142.149,228.087 141.149,224.42 144.5,219.5 Z"/></g>
<g><path style="opacity:0.78" fill="#fbf2e2" d="M 494.5,202.5 C 496.155,208.098 497.488,213.765 498.5,219.5C 498.5,221.5 498.5,223.5 498.5,225.5C 497.073,223.852 496.24,221.852 496,219.5C 495.555,213.82 495.055,208.154 494.5,202.5 Z"/></g>
<g><path style="opacity:1" fill="#a9b2b2" d="M 252.5,222.5 C 250.31,227.327 251.977,229.327 257.5,228.5C 257.5,226.5 257.5,224.5 257.5,222.5C 267.978,222.916 277.645,225.582 286.5,230.5C 279.514,230.331 277.847,233.164 281.5,239C 286.338,240.328 288.671,238.494 288.5,233.5C 291.516,233.841 294.182,235.007 296.5,237C 298.925,239.721 301.592,242.221 304.5,244.5C 311.981,251.668 316.981,260.335 319.5,270.5C 319.731,275.562 320.731,280.395 322.5,285C 320.084,286.474 319.084,288.64 319.5,291.5C 320.833,291.5 322.167,291.5 323.5,291.5C 329.957,328.865 332.124,366.531 330,404.5C 326.34,408.367 321.84,409.534 316.5,408C 314.73,406.033 313.73,403.7 313.5,401C 314.415,393.533 314.748,386.033 314.5,378.5C 318.658,382.869 321.991,382.203 324.5,376.5C 322.447,371.223 319.113,370.223 314.5,373.5C 314.666,364.494 314.5,355.494 314,346.5C 313.758,342.57 312.925,338.903 311.5,335.5C 312.141,334.518 312.807,333.518 313.5,332.5C 312.675,331.614 311.675,331.281 310.5,331.5C 309.885,321.596 308.551,311.929 306.5,302.5C 303.661,288.487 298.327,275.487 290.5,263.5C 290.586,262.504 290.252,261.671 289.5,261C 295.211,260.286 297.377,257.119 296,251.5C 288.794,247.371 285.294,249.371 285.5,257.5C 267.674,241.229 248.007,239.062 226.5,251C 225.177,251.816 224.511,252.983 224.5,254.5C 220.126,258.872 216.126,263.539 212.5,268.5C 207.222,273.459 203.556,279.459 201.5,286.5C 199.39,290.502 198.057,294.835 197.5,299.5C 196.042,303.46 194.708,307.46 193.5,311.5C 192.1,312.1 191.1,313.1 190.5,314.5C 190.611,315.117 190.944,315.617 191.5,316C 185.126,336.638 182.792,357.804 184.5,379.5C 182.441,376.851 179.775,376.018 176.5,377C 173.833,380.333 173.833,383.667 176.5,387C 179.775,387.982 182.441,387.149 184.5,384.5C 185.466,392.08 185.799,399.747 185.5,407.5C 181.178,408.726 176.845,408.726 172.5,407.5C 170.865,401.671 170.032,395.671 170,389.5C 169.173,376.327 169.34,363.327 170.5,350.5C 172.407,353.332 175.073,354.166 178.5,353C 181.311,349.706 180.978,346.706 177.5,344C 175.402,343.322 173.402,343.489 171.5,344.5C 171.568,339.153 171.901,333.82 172.5,328.5C 174.682,319.256 176.349,309.923 177.5,300.5C 181.368,289.09 185.535,277.756 190,266.5C 200.211,247.122 215.378,233.122 235.5,224.5C 240.097,223.892 244.597,222.892 249,221.5C 250.385,221.514 251.551,221.848 252.5,222.5 Z"/></g>
<g><path style="opacity:1" fill="#c8cccb" d="M 252.5,222.5 C 254.167,222.5 255.833,222.5 257.5,222.5C 257.5,224.5 257.5,226.5 257.5,228.5C 251.977,229.327 250.31,227.327 252.5,222.5 Z"/></g>
<g><path style="opacity:1" fill="#8e4a4a" d="M 208.5,220.5 C 212.485,220.629 213.818,222.463 212.5,226C 207.728,226.81 206.395,224.977 208.5,220.5 Z"/></g>
<g><path style="opacity:1" fill="#b3b4ab" d="M 304.5,244.5 C 301.592,242.221 298.925,239.721 296.5,237C 294.182,235.007 291.516,233.841 288.5,233.5C 287.833,232.5 287.167,231.5 286.5,230.5C 277.645,225.582 267.978,222.916 257.5,222.5C 255.833,222.5 254.167,222.5 252.5,222.5C 251.551,221.848 250.385,221.514 249,221.5C 244.597,222.892 240.097,223.892 235.5,224.5C 237.667,223.359 240,222.359 242.5,221.5C 254.35,219.786 266.017,220.62 277.5,224C 288.797,227.963 297.797,234.797 304.5,244.5 Z"/></g>
<g><path style="opacity:1" fill="#8e4747" d="M 184.5,226.5 C 190.487,225.977 192.487,228.477 190.5,234C 183.742,235.511 181.742,233.011 184.5,226.5 Z"/></g>
<g><path style="opacity:1" fill="#c9cbcb" d="M 286.5,230.5 C 287.167,231.5 287.833,232.5 288.5,233.5C 288.671,238.494 286.338,240.328 281.5,239C 277.847,233.164 279.514,230.331 286.5,230.5 Z"/></g>
<g><path style="opacity:1" fill="#8e4d4d" d="M 198.5,231.5 C 202.161,231.35 203.161,232.85 201.5,236C 200.207,236.49 198.873,236.657 197.5,236.5C 197.366,234.708 197.699,233.042 198.5,231.5 Z"/></g>
<g><path style="opacity:1" fill="#904848" d="M 311.5,227.5 C 316.869,227.04 319.369,229.373 319,234.5C 316,238.5 313,238.5 310,234.5C 309.167,231.829 309.667,229.496 311.5,227.5 Z"/></g>
<g><path style="opacity:1" fill="#c9cbcb" d="M 236.5,234.5 C 243.997,233.804 245.997,236.637 242.5,243C 235.801,243.809 233.801,240.975 236.5,234.5 Z"/></g>
<g><path style="opacity:1" fill="#c4c8c8" d="M 224.5,236.5 C 229.123,235.408 230.956,237.075 230,241.5C 224.799,243.331 222.966,241.665 224.5,236.5 Z"/></g>
<g><path style="opacity:1" fill="#8c8a7f" d="M 361.5,212.5 C 370.779,226.395 377.946,241.395 383,257.5C 384.82,265.752 385.987,274.085 386.5,282.5C 383.656,267.468 379.49,252.801 374,238.5C 368.565,230.317 364.398,221.65 361.5,212.5 Z"/></g>
<g><path style="opacity:1" fill="#b4b6b5" d="M 143.5,238.5 C 144.5,238.5 145.5,238.5 146.5,238.5C 146.5,239.833 146.5,241.167 146.5,242.5C 145.5,242.5 144.5,242.5 143.5,242.5C 143.5,241.167 143.5,239.833 143.5,238.5 Z"/></g>
<g><path style="opacity:1" fill="#8c4e4e" d="M 330.5,241.5 C 331.5,241.5 332.5,241.5 333.5,241.5C 333.5,242.833 333.5,244.167 333.5,245.5C 332.5,245.5 331.5,245.5 330.5,245.5C 330.5,244.167 330.5,242.833 330.5,241.5 Z"/></g>
<g><path style="opacity:1" fill="#c5c9c9" d="M 214.5,246.5 C 219.328,246.385 220.661,248.552 218.5,253C 212.738,253.418 211.404,251.251 214.5,246.5 Z"/></g>
<g><path style="opacity:1" fill="#c9cac9" d="M 290.5,263.5 C 288.5,262.167 286.833,260.5 285.5,258.5C 285.5,258.167 285.5,257.833 285.5,257.5C 285.294,249.371 288.794,247.371 296,251.5C 297.377,257.119 295.211,260.286 289.5,261C 290.252,261.671 290.586,262.504 290.5,263.5 Z"/></g>
<g><path style="opacity:1" fill="#b0b2aa" d="M 285.5,257.5 C 285.5,257.833 285.5,258.167 285.5,258.5C 282.661,256.58 279.661,254.913 276.5,253.5C 265.705,245.553 253.705,243.386 240.5,247C 236.91,248.53 233.243,249.864 229.5,251C 228.211,252.802 226.544,253.969 224.5,254.5C 224.511,252.983 225.177,251.816 226.5,251C 248.007,239.062 267.674,241.229 285.5,257.5 Z"/></g>
<g><path style="opacity:1" fill="#8c4f4f" d="M 324.5,251.5 C 325.5,251.5 326.5,251.5 327.5,251.5C 327.5,252.833 327.5,254.167 327.5,255.5C 326.5,255.5 325.5,255.5 324.5,255.5C 324.5,254.167 324.5,252.833 324.5,251.5 Z"/></g>
<g><path style="opacity:1" fill="#c6caca" d="M 299.5,252.5 C 304.159,252.015 305.492,253.848 303.5,258C 298.728,258.81 297.395,256.977 299.5,252.5 Z"/></g>
<g><path style="opacity:1" fill="#944f4e" d="M 164.5,255.5 C 170.647,253.32 172.98,255.32 171.5,261.5C 165.551,263.89 163.218,261.89 164.5,255.5 Z"/></g>
<g><path style="opacity:1" fill="#eadcc1" d="M 276.5,253.5 C 261.464,246.024 246.131,245.524 230.5,252C 224.258,257.416 218.258,262.916 212.5,268.5C 216.126,263.539 220.126,258.872 224.5,254.5C 226.544,253.969 228.211,252.802 229.5,251C 233.243,249.864 236.91,248.53 240.5,247C 253.705,243.386 265.705,245.553 276.5,253.5 Z"/></g>
<g><path style="opacity:1" fill="#c6cacb" d="M 202.5,256.5 C 207.159,256.015 208.492,257.848 206.5,262C 201.728,262.81 200.395,260.977 202.5,256.5 Z"/></g>
<g><path style="opacity:1" fill="#babdbc" d="M 369.5,259.5 C 379.228,260.032 380.894,263.865 374.5,271C 371.083,271.876 368.583,270.709 367,267.5C 366.018,264.225 366.851,261.559 369.5,259.5 Z"/></g>
<g><path style="opacity:1" fill="#935252" d="M 177.5,263.5 C 181.473,264.075 182.473,266.242 180.5,270C 175.148,270.175 174.148,268.009 177.5,263.5 Z"/></g>
<g><path style="opacity:1" fill="#f0d8bb" d="M 344.5,235.5 C 347.559,239.937 350.392,244.603 353,249.5C 360.866,276.776 364.699,304.443 364.5,332.5C 363.5,331.833 362.5,331.167 361.5,330.5C 361.425,309.718 358.425,289.384 352.5,269.5C 353.329,268.668 354.162,269.001 355,270.5C 354.16,259.531 350.993,249.197 345.5,239.5C 344.675,238.614 343.675,238.281 342.5,238.5C 342.343,237.127 342.51,235.793 343,234.5C 343.383,235.056 343.883,235.389 344.5,235.5 Z"/></g>
<g><path style="opacity:1" fill="#8e4343" d="M 333.5,268.5 C 340.94,267.753 342.94,270.587 339.5,277C 331.749,278.091 329.749,275.258 333.5,268.5 Z"/></g>
<g><path style="opacity:0.037" fill="#fcf7ee" d="M 5.5,203.5 C 5.31679,210.902 4.48345,218.236 3,225.5C 2.33333,241.5 2.33333,257.5 3,273.5C 4.53752,288.351 7.03752,303.018 10.5,317.5C 4.79268,299.743 1.62602,281.41 1,262.5C 0.346404,248.813 0.679737,235.146 2,221.5C 2.64677,215.264 3.81344,209.264 5.5,203.5 Z"/></g>
<g><path style="opacity:1" fill="#c5c9c9" d="M 310.5,272.5 C 315.805,273.241 317.139,275.741 314.5,280C 308.202,280.495 306.868,277.995 310.5,272.5 Z"/></g>
<g><path style="opacity:1" fill="#8e4a4a" d="M 165.5,275.5 C 167.167,275.5 168.833,275.5 170.5,275.5C 171.169,279.676 169.669,281.009 166,279.5C 165.51,278.207 165.343,276.873 165.5,275.5 Z"/></g>
<g><path style="opacity:1" fill="#b2b7b6" d="M 369.5,278.5 C 370.833,278.5 372.167,278.5 373.5,278.5C 373.5,279.5 373.5,280.5 373.5,281.5C 372.167,281.5 370.833,281.5 369.5,281.5C 369.5,280.5 369.5,279.5 369.5,278.5 Z"/></g>
<g><path style="opacity:1" fill="#abafb1" d="M 113.5,286.5 C 113.599,289.237 113.265,291.904 112.5,294.5C 109.853,296.811 107.186,299.144 104.5,301.5C 102.517,299.016 100.35,296.683 98,294.5C 96.5432,291.634 96.2099,288.634 97,285.5C 97.7247,284.941 98.5581,284.608 99.5,284.5C 102.104,285.269 103.938,286.936 105,289.5C 107.196,286.875 110.03,285.875 113.5,286.5 Z"/></g>
<g><path style="opacity:1" fill="#8b4f4e" d="M 347.5,284.5 C 348.5,284.5 349.5,284.5 350.5,284.5C 350.5,285.833 350.5,287.167 350.5,288.5C 349.5,288.5 348.5,288.5 347.5,288.5C 347.5,287.167 347.5,285.833 347.5,284.5 Z"/></g>
<g><path style="opacity:1" fill="#abaeb0" d="M 389.5,296.5 C 388.908,293.873 388.575,291.206 388.5,288.5C 392.843,285.391 396.51,286.057 399.5,290.5C 400.918,288.077 402.918,286.411 405.5,285.5C 407.888,285.712 408.888,287.045 408.5,289.5C 408.071,294.442 405.738,298.275 401.5,301C 400.167,301.667 398.833,301.667 397.5,301C 394.671,299.644 392.004,298.144 389.5,296.5 Z"/></g>
<g><path style="opacity:1" fill="#bdbfbe" d="M 373.5,287.5 C 376.5,287.167 377.833,288.5 377.5,291.5C 376.167,291.5 374.833,291.5 373.5,291.5C 373.5,290.167 373.5,288.833 373.5,287.5 Z"/></g>
<g><path style="opacity:1" fill="#989489" d="M 401.5,303.5 C 400.504,303.414 399.671,303.748 399,304.5C 395.492,302.413 392.158,300.08 389,297.5C 388.51,298.793 388.343,300.127 388.5,301.5C 387.861,300.903 387.528,300.07 387.5,299C 387.684,297.624 388.351,296.791 389.5,296.5C 392.004,298.144 394.671,299.644 397.5,301C 398.833,301.667 400.167,301.667 401.5,301C 405.738,298.275 408.071,294.442 408.5,289.5C 408.888,287.045 407.888,285.712 405.5,285.5C 402.918,286.411 400.918,288.077 399.5,290.5C 396.51,286.057 392.843,285.391 388.5,288.5C 386.952,288.179 386.285,287.179 386.5,285.5C 387.222,285.918 387.722,286.584 388,287.5C 391.335,283.89 395.002,283.557 399,286.5C 406.703,281.21 410.37,283.21 410,292.5C 408.102,296.998 405.269,300.664 401.5,303.5 Z"/></g>
<g><path style="opacity:1" fill="#d4af9d" d="M 152.5,283.5 C 152.326,285.861 151.993,288.194 151.5,290.5C 150.313,292.072 149.313,293.739 148.5,295.5C 148.861,291.085 150.194,287.085 152.5,283.5 Z"/></g>
<g><path style="opacity:1" fill="#be988f" d="M 342.5,247.5 C 346.019,254.715 349.353,262.048 352.5,269.5C 358.425,289.384 361.425,309.718 361.5,330.5C 360.833,330.5 360.5,330.167 360.5,329.5C 359.772,324.549 359.272,319.549 359,314.5C 357.001,292.537 351.168,270.871 341.5,249.5C 341.863,248.817 342.196,248.15 342.5,247.5 Z"/></g>
<g><path style="opacity:1" fill="#8e4645" d="M 151.5,290.5 C 157.969,287.75 160.469,289.75 159,296.5C 153.477,298.487 150.977,296.487 151.5,290.5 Z"/></g>
<g><path style="opacity:1" fill="#c4c5c4" d="M 118.5,293.5 C 126.993,292.471 129.327,295.637 125.5,303C 117.189,304.208 114.856,301.041 118.5,293.5 Z"/></g>
<g><path style="opacity:1" fill="#949289" d="M 115.5,285.5 C 115.158,286.338 114.492,286.672 113.5,286.5C 110.03,285.875 107.196,286.875 105,289.5C 103.938,286.936 102.104,285.269 99.5,284.5C 98.5581,284.608 97.7247,284.941 97,285.5C 96.2099,288.634 96.5432,291.634 98,294.5C 100.35,296.683 102.517,299.016 104.5,301.5C 107.186,299.144 109.853,296.811 112.5,294.5C 112.5,294.833 112.5,295.167 112.5,295.5C 112.167,296.167 111.833,296.833 111.5,297.5C 109.413,298.585 108.08,300.251 107.5,302.5C 106.262,303.412 104.928,303.579 103.5,303C 99.6027,299.44 96.1027,295.607 93,291.5C 92.5058,284.676 95.6724,282.176 102.5,284C 103.333,284.833 104.167,285.667 105,286.5C 108.303,284.256 111.803,283.923 115.5,285.5 Z"/></g>
<g><path style="opacity:1" fill="#8c4b4a" d="M 162.5,298.5 C 164.665,298.116 166.332,298.783 167.5,300.5C 166.332,302.217 164.665,302.884 162.5,302.5C 162.5,301.167 162.5,299.833 162.5,298.5 Z"/></g>
<g><path style="opacity:1" fill="#d5cdb8" d="M 201.5,286.5 C 200.943,291.165 199.61,295.498 197.5,299.5C 198.057,294.835 199.39,290.502 201.5,286.5 Z"/></g>
<g><path style="opacity:1" fill="#8e504f" d="M 340.5,296.5 C 341.5,296.5 342.5,296.5 343.5,296.5C 343.5,298.167 343.5,299.833 343.5,301.5C 339.716,301.475 338.716,299.808 340.5,296.5 Z"/></g>
<g><path style="opacity:1" fill="#f3d9b9" d="M 117.5,273.5 C 116.448,277.426 115.782,281.426 115.5,285.5C 111.803,283.923 108.303,284.256 105,286.5C 104.167,285.667 103.333,284.833 102.5,284C 95.6724,282.176 92.5058,284.676 93,291.5C 96.1027,295.607 99.6027,299.44 103.5,303C 104.928,303.579 106.262,303.412 107.5,302.5C 106.7,304.741 105.034,305.741 102.5,305.5C 102.261,308.915 102.928,312.081 104.5,315C 104.395,318.879 102.728,321.712 99.5,323.5C 101.254,318.296 101.754,312.962 101,307.5C 97.4784,302.508 93.9784,302.341 90.5,307C 85.6576,306.581 81.6576,308.081 78.5,311.5C 78.5,310.167 78.5,308.833 78.5,307.5C 80.9115,307.863 82.4115,306.863 83,304.5C 84.373,304.404 85.873,304.57 87.5,305C 87.6762,303.308 88.1762,301.808 89,300.5C 91.4076,302.624 93.9076,302.457 96.5,300C 91.7101,294.831 90.3768,288.831 92.5,282C 99.7246,282.632 107.058,283.132 114.5,283.5C 114.804,280.478 115.304,277.478 116,274.5C 116.383,273.944 116.883,273.611 117.5,273.5 Z"/></g>
<g><path style="opacity:1" fill="#afa794" d="M 112.5,295.5 C 113.156,296.622 113.489,297.955 113.5,299.5C 112.428,308.35 111.094,317.017 109.5,325.5C 109.75,316.751 110.75,308.085 112.5,299.5C 112.457,298.584 112.124,297.917 111.5,297.5C 111.833,296.833 112.167,296.167 112.5,295.5 Z"/></g>
<g><path style="opacity:1" fill="#e9d7ba" d="M 144.5,274.5 C 143.965,278.511 143.298,282.511 142.5,286.5C 142.57,287.772 142.903,288.938 143.5,290C 141.01,290.495 139.51,291.995 139,294.5C 138.078,301.458 136.578,308.292 134.5,315C 133.669,320.804 133.335,326.638 133.5,332.5C 132.094,332.027 131.427,331.027 131.5,329.5C 133.65,310.541 137.983,292.208 144.5,274.5 Z"/></g>
<g><path style="opacity:1" fill="#fae0bb" d="M 401.5,303.5 C 401.38,304.586 400.713,305.253 399.5,305.5C 397.945,305.278 396.611,304.611 395.5,303.5C 394.289,304.274 394.289,305.107 395.5,306C 396.793,306.49 398.127,306.657 399.5,306.5C 399.357,308.262 399.691,309.929 400.5,311.5C 399.833,312.167 399.167,312.833 398.5,313.5C 399.614,318.446 399.781,323.446 399,328.5C 397.989,327.663 396.822,327.33 395.5,327.5C 393.289,326.877 391.289,325.877 389.5,324.5C 389.799,316.747 389.466,309.08 388.5,301.5C 388.343,300.127 388.51,298.793 389,297.5C 392.158,300.08 395.492,302.413 399,304.5C 399.671,303.748 400.504,303.414 401.5,303.5 Z"/></g>
<g><path style="opacity:1" fill="#c9cbcb" d="M 312.5,303.5 C 321.393,303.252 323.393,306.752 318.5,314C 311.495,315.324 308.995,312.49 311,305.5C 311.717,304.956 312.217,304.289 312.5,303.5 Z"/></g>
<g><path style="opacity:1" fill="#ac7569" d="M 411.5,304.5 C 412.508,306.339 414.008,307.672 416,308.5C 416.219,309.938 416.719,311.271 417.5,312.5C 423.828,316.275 424.161,320.608 418.5,325.5C 412.928,327.152 407.261,328.486 401.5,329.5C 401.253,322.112 401.753,314.779 403,307.5C 405.196,304.875 408.03,303.875 411.5,304.5 Z"/></g>
<g><path style="opacity:1" fill="#c9cbcb" d="M 190.5,314.5 C 182.995,318.719 179.495,316.719 180,308.5C 182.968,306.009 186.135,305.843 189.5,308C 190.423,310.041 190.756,312.208 190.5,314.5 Z"/></g>
<g><path style="opacity:1" fill="#8f4a49" d="M 351.5,305.5 C 357.016,305.473 358.349,307.64 355.5,312C 350.57,312.427 349.237,310.26 351.5,305.5 Z"/></g>
<g><path style="opacity:1" fill="#c58f8e" d="M 406.5,306.5 C 413.385,306.552 415.885,309.885 414,316.5C 419.67,313.154 421.67,314.82 420,321.5C 418.59,322.787 417.09,323.954 415.5,325C 411.358,325.327 407.358,326.161 403.5,327.5C 403.334,321.824 403.501,316.157 404,310.5C 404.662,309.016 405.496,307.683 406.5,306.5 Z"/></g>
<g><path style="opacity:1" fill="#d5cbb8" d="M 306.5,302.5 C 308.551,311.929 309.885,321.596 310.5,331.5C 308.833,332.833 307.167,332.833 305.5,331.5C 306.833,331.5 308.167,331.5 309.5,331.5C 308.031,321.882 307.031,312.216 306.5,302.5 Z"/></g>
<g><path style="opacity:0.227" fill="#fcf7ed" d="M 498.5,276.5 C 498.5,278.167 498.5,279.833 498.5,281.5C 495.777,296.394 492.11,311.061 487.5,325.5C 491.045,309 494.712,292.667 498.5,276.5 Z"/></g>
<g><path style="opacity:1" fill="#f0d8b7" d="M 215.5,340.5 C 233.659,343.683 243.326,336.016 244.5,317.5C 241.6,317.408 239.933,318.741 239.5,321.5C 238.79,318.115 239.956,315.781 243,314.5C 244.416,315.573 245.75,315.573 247,314.5C 248.267,316.907 248.767,319.24 248.5,321.5C 246.336,328.22 243.003,334.22 238.5,339.5C 231.813,342.677 224.813,343.844 217.5,343C 216.619,342.292 215.953,341.458 215.5,340.5 Z"/></g>
<g><path style="opacity:0.024" fill="#fdf9f3" d="M 10.5,317.5 C 13.3455,325.37 16.0122,333.37 18.5,341.5C 14.4615,334.051 11.7949,326.051 10.5,317.5 Z"/></g>
<g><path style="opacity:1" fill="#b17b6f" d="M 99.5,323.5 C 98.7326,324.172 98.0659,325.005 97.5,326C 92.0106,326.932 86.6772,326.432 81.5,324.5C 77.6401,320.802 76.6401,316.469 78.5,311.5C 81.6576,308.081 85.6576,306.581 90.5,307C 93.9784,302.341 97.4784,302.508 101,307.5C 101.754,312.962 101.254,318.296 99.5,323.5 Z"/></g>
<g><path style="opacity:1" fill="#c5908e" d="M 93.5,305.5 C 95.7224,305.178 97.5557,305.845 99,307.5C 99.8757,313.328 99.3757,318.994 97.5,324.5C 92.4195,324.75 87.4195,324.25 82.5,323C 78.3024,318.368 78.6357,314.035 83.5,310C 86.0631,309.082 88.2298,309.582 90,311.5C 90.5637,309.113 91.7304,307.113 93.5,305.5 Z"/></g>
<g><path style="opacity:1" fill="#8d7c73" d="M 239.5,321.5 C 239.933,318.741 241.6,317.408 244.5,317.5C 243.326,336.016 233.659,343.683 215.5,340.5C 215.167,340.5 214.833,340.5 214.5,340.5C 212.563,339.069 210.73,337.402 209,335.5C 205.573,339.71 201.739,340.377 197.5,337.5C 200.419,336.686 203.252,335.686 206,334.5C 206.872,329.67 205.705,328.836 202.5,332C 197.841,333.651 195.174,332.151 194.5,327.5C 196.199,327.62 197.865,327.954 199.5,328.5C 201.038,328.547 202.038,327.88 202.5,326.5C 203.477,323.713 203.81,320.713 203.5,317.5C 204.5,317.5 205.5,317.5 206.5,317.5C 208.28,324.792 212.28,330.626 218.5,335C 230.376,337.943 237.376,333.443 239.5,321.5 Z"/></g>
<g><path style="opacity:1" fill="#914848" d="M 145.5,315.5 C 152.503,314.673 155.003,317.673 153,324.5C 150.445,326.65 147.612,326.983 144.5,325.5C 143.607,322.916 143.274,320.249 143.5,317.5C 143.5,317.167 143.5,316.833 143.5,316.5C 144.492,316.672 145.158,316.338 145.5,315.5 Z"/></g>
<g><path style="opacity:1" fill="#ba8988" d="M 160.5,329.5 C 153.043,328.436 146.376,330.102 140.5,334.5C 140.613,328.539 141.613,322.872 143.5,317.5C 143.274,320.249 143.607,322.916 144.5,325.5C 147.612,326.983 150.445,326.65 153,324.5C 155.003,317.673 152.503,314.673 145.5,315.5C 145.75,314.078 146.583,313.078 148,312.5C 150.698,313.28 153.031,314.613 155,316.5C 155.236,314.881 156.069,313.881 157.5,313.5C 157.611,312.883 157.944,312.383 158.5,312C 162.806,311.828 164.473,313.994 163.5,318.5C 161.167,318.5 158.833,318.5 156.5,318.5C 156.986,321.755 155.986,324.422 153.5,326.5C 156.102,327.132 158.436,328.132 160.5,329.5 Z"/></g>
<g><path style="opacity:1" fill="#8e5251" d="M 157.5,313.5 C 160.5,313.167 161.833,314.5 161.5,317.5C 160.167,317.5 158.833,317.5 157.5,317.5C 157.5,316.167 157.5,314.833 157.5,313.5 Z"/></g>
<g><path style="opacity:1" fill="#f3debf" d="M 212.5,268.5 C 211.914,270.84 210.914,273.007 209.5,275C 210.458,276.147 210.125,277.147 208.5,278C 207.163,281.192 205.497,284.692 203.5,288.5C 203.709,289.086 204.043,289.586 204.5,290C 201.886,292.068 201.219,294.568 202.5,297.5C 200.692,301.588 198.692,305.588 196.5,309.5C 195.355,312.958 194.355,316.458 193.5,320C 193.544,321.764 193.878,323.431 194.5,325C 197.014,326.252 199.68,326.752 202.5,326.5C 202.038,327.88 201.038,328.547 199.5,328.5C 197.865,327.954 196.199,327.62 194.5,327.5C 195.174,332.151 197.841,333.651 202.5,332C 205.705,328.836 206.872,329.67 206,334.5C 203.252,335.686 200.419,336.686 197.5,337.5C 201.739,340.377 205.573,339.71 209,335.5C 210.73,337.402 212.563,339.069 214.5,340.5C 212.856,340.714 211.356,340.38 210,339.5C 205.984,341.121 201.817,341.621 197.5,341C 194.855,340.409 194.189,339.075 195.5,337C 195.122,335.365 194.456,333.865 193.5,332.5C 193.258,335.07 192.258,337.737 190.5,340.5C 191.002,341.716 191.335,342.883 191.5,344C 189.352,346.075 189.018,348.408 190.5,351C 188.834,353.48 188.001,356.313 188,359.5C 187.5,371.495 187.333,383.495 187.5,395.5C 186.339,379.672 186.172,363.672 187,347.5C 189.489,335.567 191.656,323.567 193.5,311.5C 194.708,307.46 196.042,303.46 197.5,299.5C 199.61,295.498 200.943,291.165 201.5,286.5C 203.556,279.459 207.222,273.459 212.5,268.5 Z"/></g>
<g><path style="opacity:1" fill="#a56f6c" d="M 360.5,329.5 C 360.5,330.167 360.833,330.5 361.5,330.5C 362.5,331.167 363.5,331.833 364.5,332.5C 366.435,333.709 368.435,333.542 370.5,332C 375.28,326.021 381.613,323.521 389.5,324.5C 391.289,325.877 393.289,326.877 395.5,327.5C 397.922,329.552 398.922,332.218 398.5,335.5C 397.992,341.842 396.325,347.842 393.5,353.5C 392.833,353.5 392.5,353.833 392.5,354.5C 391.833,354.5 391.5,354.833 391.5,355.5C 389.473,358.22 387.807,361.22 386.5,364.5C 382.952,367.906 380.118,371.906 378,376.5C 374.667,378.667 371.834,381.334 369.5,384.5C 367.254,385.455 364.921,386.122 362.5,386.5C 351.595,380.928 342.928,372.928 336.5,362.5C 336.737,361.209 336.404,360.209 335.5,359.5C 335.107,357.716 334.441,356.05 333.5,354.5C 330.833,347.833 330.833,341.167 333.5,334.5C 333.557,333.391 333.89,332.391 334.5,331.5C 336.537,329.47 338.87,327.804 341.5,326.5C 342.452,324.955 342.785,323.288 342.5,321.5C 343.5,321.5 344.5,321.5 345.5,321.5C 345.5,322.833 345.5,324.167 345.5,325.5C 350.559,326.349 355.559,327.683 360.5,329.5 Z"/></g>
<g><path style="opacity:1" fill="#c4908f" d="M 381.5,326.5 C 394.928,325.764 399.428,331.764 395,344.5C 388.485,359.33 379.318,372.163 367.5,383C 365.635,384.301 363.635,384.635 361.5,384C 342.372,373.91 333.538,358.077 335,336.5C 337.055,331.226 340.889,328.56 346.5,328.5C 354.046,329.014 360.712,331.681 366.5,336.5C 371.393,332.895 376.393,329.562 381.5,326.5 Z"/></g>
<g><path style="opacity:0.231" fill="#fcf8f0" d="M 487.5,325.5 C 486.602,330.534 484.935,335.201 482.5,339.5C 483.398,334.466 485.065,329.799 487.5,325.5 Z"/></g>
<g><path style="opacity:1" fill="#f8d6b6" d="M 411.5,304.5 C 408.03,303.875 405.196,304.875 403,307.5C 401.753,314.779 401.253,322.112 401.5,329.5C 407.261,328.486 412.928,327.152 418.5,325.5C 417.64,327.614 415.973,328.78 413.5,329C 409.187,329.735 404.853,330.235 400.5,330.5C 401.508,334.432 401.342,338.432 400,342.5C 398.547,345.298 397.547,348.298 397,351.5C 395.887,352.305 394.721,352.972 393.5,353.5C 396.325,347.842 397.992,341.842 398.5,335.5C 398.922,332.218 397.922,329.552 395.5,327.5C 396.822,327.33 397.989,327.663 399,328.5C 399.781,323.446 399.614,318.446 398.5,313.5C 399.167,312.833 399.833,312.167 400.5,311.5C 399.691,309.929 399.357,308.262 399.5,306.5C 398.127,306.657 396.793,306.49 395.5,306C 394.289,305.107 394.289,304.274 395.5,303.5C 396.611,304.611 397.945,305.278 399.5,305.5C 400.713,305.253 401.38,304.586 401.5,303.5C 404.879,302.885 408.212,303.219 411.5,304.5 Z"/></g>
<g><path style="opacity:1" fill="#8e7e74" d="M 305.5,331.5 C 307.167,332.833 308.833,332.833 310.5,331.5C 311.675,331.281 312.675,331.614 313.5,332.5C 312.807,333.518 312.141,334.518 311.5,335.5C 310.508,335.328 309.842,335.662 309.5,336.5C 306.028,336.874 303.028,335.874 300.5,333.5C 298.51,334.463 298.177,335.796 299.5,337.5C 302.441,338.613 305.108,339.946 307.5,341.5C 302.957,343.159 298.79,342.493 295,339.5C 276.086,345.37 266.752,338.37 267,318.5C 267.414,318.043 267.914,317.709 268.5,317.5C 269.308,319.423 269.808,321.423 270,323.5C 272.717,333.607 279.217,337.773 289.5,336C 291.624,334.878 293.457,333.378 295,331.5C 297.756,326.475 299.589,321.142 300.5,315.5C 301.5,315.5 302.5,315.5 303.5,315.5C 303.737,319.722 303.404,323.889 302.5,328C 302.978,329.642 303.978,330.809 305.5,331.5 Z"/></g>
<g><path style="opacity:0.165" fill="#fcf6ec" d="M 18.5,341.5 C 22.2416,346.986 24.9083,352.986 26.5,359.5C 22.7673,354.03 20.1006,348.03 18.5,341.5 Z"/></g>
<g><path style="opacity:1" fill="#c7c9c9" d="M 170.5,350.5 C 170.325,348.379 170.659,346.379 171.5,344.5C 173.402,343.489 175.402,343.322 177.5,344C 180.978,346.706 181.311,349.706 178.5,353C 175.073,354.166 172.407,353.332 170.5,350.5 Z"/></g>
<g><path style="opacity:1" fill="#b1b2aa" d="M 319.5,270.5 C 321.843,277.318 324.01,284.318 326,291.5C 328.145,306.138 330.145,320.804 332,335.5C 332.383,334.944 332.883,334.611 333.5,334.5C 330.833,341.167 330.833,347.833 333.5,354.5C 332.668,371.328 332.168,388.328 332,405.5C 330.786,407.049 329.286,408.215 327.5,409C 323.514,409.499 319.514,409.666 315.5,409.5C 314.542,408.038 313.376,406.705 312,405.5C 312.444,385.51 312.444,365.51 312,345.5C 312.07,342.008 311.237,339.008 309.5,336.5C 309.842,335.662 310.508,335.328 311.5,335.5C 312.925,338.903 313.758,342.57 314,346.5C 314.5,355.494 314.666,364.494 314.5,373.5C 314.5,375.167 314.5,376.833 314.5,378.5C 314.748,386.033 314.415,393.533 313.5,401C 313.73,403.7 314.73,406.033 316.5,408C 321.84,409.534 326.34,408.367 330,404.5C 332.124,366.531 329.957,328.865 323.5,291.5C 322.167,291.5 320.833,291.5 319.5,291.5C 319.084,288.64 320.084,286.474 322.5,285C 320.731,280.395 319.731,275.562 319.5,270.5 Z"/></g>
<g><path style="opacity:0.008" fill="#fcf7ef" d="M 480.5,344.5 C 478.789,350.982 476.122,356.982 472.5,362.5C 474.109,355.956 476.775,349.956 480.5,344.5 Z"/></g>
<g><path style="opacity:1" fill="#7d7f7d" d="M 110.5,361.5 C 117.851,370.19 124.851,379.19 131.5,388.5C 133.057,395.956 131.057,402.123 125.5,407C 122.901,407.769 120.401,407.602 118,406.5C 115.349,397.575 113.349,388.575 112,379.5C 111.204,375.245 111.371,371.079 112.5,367C 110.845,365.556 110.178,363.722 110.5,361.5 Z"/></g>
<g><path style="opacity:1" fill="#a46c68" d="M 131.5,329.5 C 131.427,331.027 132.094,332.027 133.5,332.5C 135.006,337.793 137.34,338.46 140.5,334.5C 146.376,330.102 153.043,328.436 160.5,329.5C 162.284,329.893 163.95,330.559 165.5,331.5C 166.789,332.637 167.789,333.97 168.5,335.5C 170.2,341.474 169.533,347.14 166.5,352.5C 165.4,353.605 164.733,354.938 164.5,356.5C 163.167,357.167 162.167,358.167 161.5,359.5C 160.662,359.842 160.328,360.508 160.5,361.5C 152.869,368.166 145.869,375.5 139.5,383.5C 138.833,383.5 138.5,383.833 138.5,384.5C 136.833,385.833 135.167,387.167 133.5,388.5C 132.833,388.5 132.167,388.5 131.5,388.5C 124.851,379.19 117.851,370.19 110.5,361.5C 110.167,361.5 109.833,361.5 109.5,361.5C 109.768,359.901 109.434,358.568 108.5,357.5C 103.095,347.863 103.429,338.53 109.5,329.5C 116.833,326.833 124.167,326.833 131.5,329.5 Z"/></g>
<g><path style="opacity:1" fill="#c4908f" d="M 117.5,329.5 C 126.571,329.287 133.071,333.287 137,341.5C 143.11,333.2 151.277,330.034 161.5,332C 167.172,334.768 169.006,339.268 167,345.5C 165.527,349.779 163.527,353.779 161,357.5C 152.295,367.371 143.128,376.705 133.5,385.5C 121.731,375.237 112.898,362.904 107,348.5C 104.89,338.695 108.39,332.362 117.5,329.5 Z"/></g>
<g><path style="opacity:1" fill="#b8b7ac" d="M 193.5,311.5 C 191.656,323.567 189.489,335.567 187,347.5C 186.172,363.672 186.339,379.672 187.5,395.5C 187.665,399.182 187.499,402.848 187,406.5C 185.898,407.949 184.731,409.282 183.5,410.5C 180.15,410.665 176.817,410.498 173.5,410C 172.748,409.329 172.414,408.496 172.5,407.5C 176.845,408.726 181.178,408.726 185.5,407.5C 185.799,399.747 185.466,392.08 184.5,384.5C 184.5,382.833 184.5,381.167 184.5,379.5C 182.792,357.804 185.126,336.638 191.5,316C 190.944,315.617 190.611,315.117 190.5,314.5C 191.1,313.1 192.1,312.1 193.5,311.5 Z"/></g>
<g><path style="opacity:1" fill="#c7cac9" d="M 314.5,378.5 C 314.5,376.833 314.5,375.167 314.5,373.5C 319.113,370.223 322.447,371.223 324.5,376.5C 321.991,382.203 318.658,382.869 314.5,378.5 Z"/></g>
<g><path style="opacity:1" fill="#f1dfc1" d="M 309.5,336.5 C 311.237,339.008 312.07,342.008 312,345.5C 312.444,365.51 312.444,385.51 312,405.5C 313.376,406.705 314.542,408.038 315.5,409.5C 312.909,408.746 311.076,407.079 310,404.5C 310.533,384.516 310.533,364.516 310,344.5C 309.764,342.881 308.931,341.881 307.5,341.5C 305.108,339.946 302.441,338.613 299.5,337.5C 298.177,335.796 298.51,334.463 300.5,333.5C 303.028,335.874 306.028,336.874 309.5,336.5 Z"/></g>
<g><path style="opacity:0.998" fill="#fcefdb" d="M 26.5,359.5 C 29.7256,364.271 32.7256,369.271 35.5,374.5C 36.6888,375.429 38.0222,375.762 39.5,375.5C 40.0396,378.865 40.7063,382.198 41.5,385.5C 35.4929,377.495 30.4929,368.828 26.5,359.5 Z"/></g>
<g><path style="opacity:1" fill="#928174" d="M 199.5,370.5 C 205.158,369.679 206.825,371.846 204.5,377C 199.183,377.73 197.517,375.563 199.5,370.5 Z"/></g>
<g><path style="opacity:1" fill="#978577" d="M 298.5,369.5 C 304.488,369.664 305.821,372.164 302.5,377C 296.403,377.147 295.07,374.647 298.5,369.5 Z"/></g>
<g><path style="opacity:1" fill="#958274" d="M 211.5,374.5 C 216.159,374.015 217.492,375.848 215.5,380C 214.216,380.684 213.049,380.517 212,379.5C 211.506,377.866 211.34,376.199 211.5,374.5 Z"/></g>
<g><path style="opacity:1" fill="#c7c9c9" d="M 184.5,379.5 C 184.5,381.167 184.5,382.833 184.5,384.5C 182.441,387.149 179.775,387.982 176.5,387C 173.833,383.667 173.833,380.333 176.5,377C 179.775,376.018 182.441,376.851 184.5,379.5 Z"/></g>
<g><path style="opacity:1" fill="#b98f8e" d="M 160.5,361.5 C 160.916,376.55 160.416,391.55 159,406.5C 155.531,409.916 151.864,410.25 148,407.5C 146.667,404.833 145.333,402.167 144,399.5C 142.691,393.869 141.191,388.536 139.5,383.5C 145.869,375.5 152.869,368.166 160.5,361.5 Z"/></g>
<g><path style="opacity:1" fill="#8e4243" d="M 150.5,374.5 C 157.628,374.706 159.294,377.873 155.5,384C 148.497,383.806 146.831,380.64 150.5,374.5 Z"/></g>
<g><path style="opacity:1" fill="#f4dcbb" d="M 283.5,367.5 C 282.178,367.33 281.011,367.663 280,368.5C 277.572,376.919 272.405,382.753 264.5,386C 252.332,390.544 242.666,387.711 235.5,377.5C 239.307,379.385 242.974,381.552 246.5,384C 248.112,384.72 249.612,384.554 251,383.5C 251.333,384.167 251.667,384.833 252,385.5C 255.72,385.342 259.554,385.175 263.5,385C 263.167,384.667 262.833,384.333 262.5,384C 265.531,381.985 268.864,380.819 272.5,380.5C 274.304,375.907 275.804,371.574 277,367.5C 279.274,366.189 281.44,366.189 283.5,367.5 Z"/></g>
<g><path style="opacity:1" fill="#fcecd4" d="M 50.5,398.5 C 46.7629,394.698 43.7629,390.365 41.5,385.5C 42.8221,385.67 43.9887,385.337 45,384.5C 46.3231,386.839 47.8231,389.005 49.5,391C 48.9415,391.725 48.6082,392.558 48.5,393.5C 49.1869,395.177 49.8535,396.844 50.5,398.5 Z"/></g>
<g><path style="opacity:1" fill="#c39e92" d="M 161.5,359.5 C 161.285,371.683 161.619,383.85 162.5,396C 162.765,401.898 161.098,407.065 157.5,411.5C 148.616,411.794 143.449,407.461 142,398.5C 140.801,393.705 139.634,389.038 138.5,384.5C 138.5,383.833 138.833,383.5 139.5,383.5C 141.191,388.536 142.691,393.869 144,399.5C 145.333,402.167 146.667,404.833 148,407.5C 151.864,410.25 155.531,409.916 159,406.5C 160.416,391.55 160.916,376.55 160.5,361.5C 160.328,360.508 160.662,359.842 161.5,359.5 Z"/></g>
<g><path style="opacity:1" fill="#988473" d="M 288.5,383.5 C 290.167,383.5 291.833,383.5 293.5,383.5C 293.5,384.833 293.5,386.167 293.5,387.5C 291.833,387.5 290.167,387.5 288.5,387.5C 288.5,386.167 288.5,384.833 288.5,383.5 Z"/></g>
<g><path style="opacity:1" fill="#998776" d="M 202.5,384.5 C 206.138,383.737 207.638,385.07 207,388.5C 202.415,390.413 200.915,389.079 202.5,384.5 Z"/></g>
<g><path style="opacity:1" fill="#f6ddbd" d="M 333.5,354.5 C 334.441,356.05 335.107,357.716 335.5,359.5C 335.84,375.17 336.34,390.836 337,406.5C 337.383,407.056 337.883,407.389 338.5,407.5C 347.004,413.479 354.838,412.812 362,405.5C 362.5,399.175 362.666,392.842 362.5,386.5C 364.921,386.122 367.254,385.455 369.5,384.5C 369.5,384.833 369.5,385.167 369.5,385.5C 369.334,390.179 369.501,394.845 370,399.5C 370.639,402.112 371.806,404.446 373.5,406.5C 383.965,410.686 389.465,407.353 390,396.5C 391.19,382.859 391.69,369.192 391.5,355.5C 391.5,354.833 391.833,354.5 392.5,354.5C 393.18,365.321 393.847,376.155 394.5,387C 392.606,393.734 390.94,400.567 389.5,407.5C 381.33,412.252 373.996,411.419 367.5,405C 368.24,399.814 367.74,394.648 366,389.5C 365.691,390.766 365.191,391.933 364.5,393C 365.167,396.333 365.833,399.667 366.5,403C 363.963,406.595 361.797,410.428 360,414.5C 356.687,414.459 353.354,414.459 350,414.5C 344.101,413.386 339.101,410.719 335,406.5C 333.111,409.689 330.278,411.189 326.5,411C 323.5,411.667 320.5,411.667 317.5,411C 316.584,410.722 315.918,410.222 315.5,409.5C 319.514,409.666 323.514,409.499 327.5,409C 329.286,408.215 330.786,407.049 332,405.5C 332.168,388.328 332.668,371.328 333.5,354.5 Z"/></g>
<g><path style="opacity:1" fill="#8d7775" d="M 386.5,364.5 C 386.167,365.833 385.833,367.167 385.5,368.5C 382.81,371.039 380.643,374.039 379,377.5C 376.002,379.333 373.502,381.666 371.5,384.5C 370.833,384.833 370.167,385.167 369.5,385.5C 369.5,385.167 369.5,384.833 369.5,384.5C 371.834,381.334 374.667,378.667 378,376.5C 380.118,371.906 382.952,367.906 386.5,364.5 Z"/></g>
<g><path style="opacity:1" fill="#bb9290" d="M 336.5,362.5 C 342.928,372.928 351.595,380.928 362.5,386.5C 362.666,392.842 362.5,399.175 362,405.5C 354.838,412.812 347.004,413.479 338.5,407.5C 337.741,392.53 337.074,377.53 336.5,362.5 Z"/></g>
<g><path style="opacity:1" fill="#8f4b4b" d="M 345.5,382.5 C 350.159,382.015 351.492,383.848 349.5,388C 344.728,388.81 343.395,386.977 345.5,382.5 Z"/></g>
<g><path style="opacity:1" fill="#7b807e" d="M 371.5,384.5 C 373.502,381.666 376.002,379.333 379,377.5C 380.643,374.039 382.81,371.039 385.5,368.5C 387.093,367.652 388.26,366.319 389,364.5C 389.793,375.869 389.46,387.202 388,398.5C 387.454,403.385 384.788,405.718 380,405.5C 376.066,405.904 373.399,404.238 372,400.5C 371.501,395.177 371.334,389.844 371.5,384.5 Z"/></g>
<g><path style="opacity:1" fill="#f8dbbb" d="M 138.5,384.5 C 139.634,389.038 140.801,393.705 142,398.5C 143.449,407.461 148.616,411.794 157.5,411.5C 156.895,413.026 155.729,414.026 154,414.5C 151.022,413.096 148.022,412.763 145,413.5C 144.383,412.551 144.549,411.718 145.5,411C 141.992,406.413 139.325,401.413 137.5,396C 139.492,391.848 138.159,390.015 133.5,390.5C 133.815,394.371 133.482,398.038 132.5,401.5C 132.231,397.069 132.564,392.735 133.5,388.5C 135.167,387.167 136.833,385.833 138.5,384.5 Z"/></g>
<g><path style="opacity:1" fill="#d4b2a0" d="M 335.5,359.5 C 336.404,360.209 336.737,361.209 336.5,362.5C 337.074,377.53 337.741,392.53 338.5,407.5C 337.883,407.389 337.383,407.056 337,406.5C 336.34,390.836 335.84,375.17 335.5,359.5 Z"/></g>
<g><path style="opacity:1" fill="#8e7e74" d="M 283.5,367.5 C 281.89,381.279 274.223,389.446 260.5,392C 248.511,395.54 239.344,392.04 233,381.5C 230.792,378.446 229.792,375.113 230,371.5C 232.068,373.396 233.901,375.396 235.5,377.5C 242.666,387.711 252.332,390.544 264.5,386C 272.405,382.753 277.572,376.919 280,368.5C 281.011,367.663 282.178,367.33 283.5,367.5 Z"/></g>
<g><path style="opacity:1" fill="#8c4d4d" d="M 146.5,388.5 C 147.833,388.5 149.167,388.5 150.5,388.5C 150.5,389.833 150.5,391.167 150.5,392.5C 149.167,392.5 147.833,392.5 146.5,392.5C 146.5,391.167 146.5,389.833 146.5,388.5 Z"/></g>
<g><path style="opacity:1" fill="#948071" d="M 301.5,388.5 C 305.161,388.35 306.161,389.85 304.5,393C 303.207,393.49 301.873,393.657 300.5,393.5C 300.366,391.708 300.699,390.042 301.5,388.5 Z"/></g>
<g><path style="opacity:0.067" fill="#fcf7ef" d="M 472.5,362.5 C 465.183,378.798 455.516,393.464 443.5,406.5C 453.667,392.168 463.333,377.501 472.5,362.5 Z"/></g>
<g><path style="opacity:1" fill="#b1b2aa" d="M 177.5,300.5 C 176.349,309.923 174.682,319.256 172.5,328.5C 171.901,333.82 171.568,339.153 171.5,344.5C 170.659,346.379 170.325,348.379 170.5,350.5C 169.34,363.327 169.173,376.327 170,389.5C 170.032,395.671 170.865,401.671 172.5,407.5C 171.21,406.942 170.377,405.942 170,404.5C 169.24,400.181 168.573,395.848 168,391.5C 167.831,378.327 167.331,365.327 166.5,352.5C 169.533,347.14 170.2,341.474 168.5,335.5C 169.117,335.611 169.617,335.944 170,336.5C 170.296,323.844 172.796,311.844 177.5,300.5 Z"/></g>
<g><path style="opacity:1" fill="#8b897d" d="M 109.5,361.5 C 109.833,361.5 110.167,361.5 110.5,361.5C 110.178,363.722 110.845,365.556 112.5,367C 111.371,371.079 111.204,375.245 112,379.5C 113.349,388.575 115.349,397.575 118,406.5C 120.401,407.602 122.901,407.769 125.5,407C 131.057,402.123 133.057,395.956 131.5,388.5C 132.167,388.5 132.833,388.5 133.5,388.5C 132.564,392.735 132.231,397.069 132.5,401.5C 131.121,404.386 129.121,406.886 126.5,409C 122.495,410.098 118.995,409.265 116,406.5C 113.855,402.066 112.522,397.4 112,392.5C 110.631,382.208 109.798,371.875 109.5,361.5 Z"/></g>
<g><path style="opacity:1" fill="#914d4d" d="M 353.5,394.5 C 358.159,394.015 359.492,395.848 357.5,400C 352.728,400.81 351.395,398.977 353.5,394.5 Z"/></g>
<g><path style="opacity:1" fill="#f1ddbc" d="M 108.5,357.5 C 109.434,358.568 109.768,359.901 109.5,361.5C 109.798,371.875 110.631,382.208 112,392.5C 112.522,397.4 113.855,402.066 116,406.5C 118.995,409.265 122.495,410.098 126.5,409C 129.121,406.886 131.121,404.386 132.5,401.5C 132.326,403.861 131.993,406.194 131.5,408.5C 126.801,409.925 121.968,410.925 117,411.5C 116.353,409.507 114.687,407.841 112,406.5C 111.814,404.1 111.314,401.766 110.5,399.5C 109.914,399.709 109.414,400.043 109,400.5C 109.836,397.877 110.336,395.044 110.5,392C 108.756,380.574 108.089,369.074 108.5,357.5 Z"/></g>
<g><path style="opacity:1" fill="#f0dec0" d="M 166.5,352.5 C 167.331,365.327 167.831,378.327 168,391.5C 168.573,395.848 169.24,400.181 170,404.5C 170.377,405.942 171.21,406.942 172.5,407.5C 172.414,408.496 172.748,409.329 173.5,410C 176.817,410.498 180.15,410.665 183.5,410.5C 182.376,411.809 180.876,412.475 179,412.5C 169.348,412.622 165.515,408.122 167.5,399C 166.082,384.714 165.082,370.548 164.5,356.5C 164.733,354.938 165.4,353.605 166.5,352.5 Z"/></g>
<g><path style="opacity:1" fill="#87847a" d="M 391.5,355.5 C 391.69,369.192 391.19,382.859 390,396.5C 389.465,407.353 383.965,410.686 373.5,406.5C 371.806,404.446 370.639,402.112 370,399.5C 369.501,394.845 369.334,390.179 369.5,385.5C 370.167,385.167 370.833,384.833 371.5,384.5C 371.334,389.844 371.501,395.177 372,400.5C 373.399,404.238 376.066,405.904 380,405.5C 384.788,405.718 387.454,403.385 388,398.5C 389.46,387.202 389.793,375.869 389,364.5C 388.26,366.319 387.093,367.652 385.5,368.5C 385.833,367.167 386.167,365.833 386.5,364.5C 387.807,361.22 389.473,358.22 391.5,355.5 Z"/></g>
<g><path style="opacity:0.016" fill="#fcf6ed" d="M 62.5,413.5 C 70.4249,420.758 78.0916,428.425 85.5,436.5C 76.8544,429.854 69.1877,422.188 62.5,413.5 Z"/></g>
<g><path style="opacity:0.114" fill="#fcf7ed" d="M 443.5,406.5 C 439.274,413.398 433.941,419.398 427.5,424.5C 432.468,418.197 437.802,412.197 443.5,406.5 Z"/></g>
<g><path style="opacity:0.035" fill="#fdf9f3" d="M 423.5,428.5 C 420.769,432.234 417.436,435.234 413.5,437.5C 416.231,433.766 419.564,430.766 423.5,428.5 Z"/></g>
<g><path style="opacity:0.141" fill="#fcf7ef" d="M 412.5,438.5 C 409.54,441.645 406.207,444.312 402.5,446.5C 405.095,442.874 408.428,440.208 412.5,438.5 Z"/></g>
<g><path style="opacity:1" fill="#5f614e" d="M 333.5,445.5 C 340.029,445.857 343.195,449.19 343,455.5C 340.565,460.224 336.731,461.724 331.5,460C 328.366,454.566 329.033,449.733 333.5,445.5 Z"/></g>
<g><path style="opacity:1" fill="#626351" d="M 170.5,445.5 C 177.685,445.848 180.519,449.515 179,456.5C 176.487,460.212 172.987,461.378 168.5,460C 165.806,457.347 164.973,454.18 166,450.5C 167.707,448.963 169.207,447.296 170.5,445.5 Z"/></g>
<g><path style="opacity:1" fill="#ebdcbc" d="M 170.5,449.5 C 177.492,449.976 178.825,452.809 174.5,458C 169.504,458.664 167.67,456.498 169,451.5C 169.717,450.956 170.217,450.289 170.5,449.5 Z"/></g>
<g><path style="opacity:1" fill="#fcefdb" d="M 402.5,446.5 C 392.196,455.325 380.863,462.658 368.5,468.5C 373.097,464.858 378.097,461.692 383.5,459C 384.227,457.601 384.727,456.101 385,454.5C 385.414,454.957 385.914,455.291 386.5,455.5C 390.856,451.658 396.189,448.658 402.5,446.5 Z"/></g>
<g><path style="opacity:1" fill="#595d4c" d="M 247.5,446.5 C 248.167,446.5 248.833,446.5 249.5,446.5C 249.5,451.167 249.5,455.833 249.5,460.5C 248.5,460.5 247.5,460.5 246.5,460.5C 244.093,459.206 241.926,457.539 240,455.5C 239.808,457.577 239.308,459.577 238.5,461.5C 237.914,461.291 237.414,460.957 237,460.5C 236.41,456.799 236.077,453.132 236,449.5C 236.414,449.043 236.914,448.709 237.5,448.5C 238.735,449.34 239.735,450.34 240.5,451.5C 242.17,454.002 244.336,456.002 247,457.5C 247.499,453.848 247.665,450.182 247.5,446.5 Z"/></g>
<g><path style="opacity:1" fill="#f2dfbd" d="M 308.5,445.5 C 308.405,450.887 308.905,456.22 310,461.5C 310.414,461.957 310.914,462.291 311.5,462.5C 312.474,460.257 312.808,457.924 312.5,455.5C 315.059,455.198 317.393,455.532 319.5,456.5C 317.5,456.5 315.5,456.5 313.5,456.5C 313.5,458.833 313.5,461.167 313.5,463.5C 309.44,464.152 307.44,462.485 307.5,458.5C 306.448,458.351 305.448,458.517 304.5,459C 303.167,459.667 303.167,460.333 304.5,461C 303.906,461.464 303.239,461.631 302.5,461.5C 302.795,459.265 302.461,457.265 301.5,455.5C 299.073,453.442 296.407,451.609 293.5,450C 294.263,449.056 295.263,448.556 296.5,448.5C 298.332,449.821 300.332,450.821 302.5,451.5C 300.739,445.251 297.073,443.918 291.5,447.5C 291.5,446.833 291.167,446.5 290.5,446.5C 290.119,444.058 290.786,443.391 292.5,444.5C 294.593,442.757 296.76,442.09 299,442.5C 300.154,443.743 301.488,444.743 303,445.5C 303.333,448.167 303.667,450.833 304,453.5C 304.368,454.91 305.201,455.91 306.5,456.5C 307.167,452.687 307.834,449.021 308.5,445.5 Z"/></g>
<g><path style="opacity:1" fill="#eedcb9" d="M 208.5,460.5 C 207.503,460.53 206.836,460.03 206.5,459C 205.851,455.125 205.018,451.291 204,447.5C 203.367,452.222 202.2,456.555 200.5,460.5C 200.5,455.833 200.5,451.167 200.5,446.5C 199.5,446.5 198.5,446.5 197.5,446.5C 197.82,449.898 197.487,453.232 196.5,456.5C 193.5,453.833 190.5,451.167 187.5,448.5C 186.656,452.48 186.823,456.48 188,460.5C 188.414,460.957 188.914,461.291 189.5,461.5C 190.1,459.424 190.433,457.424 190.5,455.5C 193.271,458.548 196.604,460.548 200.5,461.5C 198.395,462.819 196.395,462.486 194.5,460.5C 193.167,461.5 191.833,462.5 190.5,463.5C 189.205,462.902 187.872,462.402 186.5,462C 185.633,458.246 184.966,454.413 184.5,450.5C 184.477,448.933 184.977,447.6 186,446.5C 187.32,446.799 188.82,446.966 190.5,447C 191.667,448.167 192.833,449.333 194,450.5C 194.526,448.45 195.359,446.617 196.5,445C 197.793,444.51 199.127,444.343 200.5,444.5C 200.351,443.448 200.517,442.448 201,441.5C 202.18,442.684 203.68,443.351 205.5,443.5C 207.32,443.351 208.82,442.684 210,441.5C 211.692,443.359 213.192,445.359 214.5,447.5C 211.724,450.201 212.058,452.535 215.5,454.5C 216.167,453.833 216.833,453.167 217.5,452.5C 218.424,454.39 219.757,455.89 221.5,457C 221.306,461.852 218.806,463.685 214,462.5C 211.705,462.453 209.871,461.787 208.5,460.5 Z"/></g>
<g><path style="opacity:1" fill="#5a5a47" d="M 228.5,446.5 C 228.822,452.358 228.489,458.025 227.5,463.5C 226.183,457.654 226.183,451.654 227.5,445.5C 228.107,445.624 228.44,445.957 228.5,446.5 Z"/></g>
<g><path style="opacity:1" fill="#dfd3b7" d="M 247.5,446.5 C 247.665,450.182 247.499,453.848 247,457.5C 244.336,456.002 242.17,454.002 240.5,451.5C 242.117,452.038 243.784,452.371 245.5,452.5C 245.025,449.918 245.692,447.918 247.5,446.5 Z"/></g>
<g><path style="opacity:1" fill="#f2debc" d="M 267.5,440.5 C 269.14,441.32 270.807,442.153 272.5,443C 271.167,444 271.167,445 272.5,446C 270.734,447.698 268.734,449.031 266.5,450C 267.505,451.507 268.838,452.673 270.5,453.5C 269.147,454.524 268.48,455.857 268.5,457.5C 272.473,458.075 273.473,460.242 271.5,464C 267.167,464.667 262.833,464.667 258.5,464C 257.584,463.626 256.75,463.126 256,462.5C 255.5,456.175 255.334,449.842 255.5,443.5C 259.917,443.729 263.917,442.729 267.5,440.5 Z"/></g>
<g><path style="opacity:1" fill="#636350" d="M 264.5,443.5 C 265.833,443.5 267.167,443.5 268.5,443.5C 268.64,445.124 267.973,446.29 266.5,447C 264.19,447.497 261.857,447.663 259.5,447.5C 259.5,448.833 259.5,450.167 259.5,451.5C 261.833,451.5 264.167,451.5 266.5,451.5C 266.5,452.5 266.5,453.5 266.5,454.5C 264.167,454.5 261.833,454.5 259.5,454.5C 259.5,456.167 259.5,457.833 259.5,459.5C 262.833,459.5 266.167,459.5 269.5,459.5C 269.5,460.5 269.5,461.5 269.5,462.5C 265.774,462.823 262.107,462.489 258.5,461.5C 256.59,456.658 256.09,451.658 257,446.5C 259.378,445.033 261.878,444.033 264.5,443.5 Z"/></g>
<g><path style="opacity:1" fill="#5f614f" d="M 310.5,445.5 C 310.34,447.199 310.506,448.866 311,450.5C 311.417,451.756 312.25,452.423 313.5,452.5C 315.5,452.5 317.5,452.5 319.5,452.5C 319.337,450.143 319.503,447.81 320,445.5C 320.414,445.043 320.914,444.709 321.5,444.5C 322.833,450.5 322.833,456.5 321.5,462.5C 319.717,460.977 319.051,458.977 319.5,456.5C 317.393,455.532 315.059,455.198 312.5,455.5C 312.808,457.924 312.474,460.257 311.5,462.5C 310.914,462.291 310.414,461.957 310,461.5C 308.905,456.22 308.405,450.887 308.5,445.5C 309.167,444.167 309.833,444.167 310.5,445.5 Z"/></g>
<g><path style="opacity:1" fill="#b5b099" d="M 310.5,445.5 C 311.341,447.812 312.341,450.145 313.5,452.5C 312.25,452.423 311.417,451.756 311,450.5C 310.506,448.866 310.34,447.199 310.5,445.5 Z"/></g>
<g><path style="opacity:1" fill="#ebdcbd" d="M 333.5,449.5 C 340.896,449.615 342.23,452.448 337.5,458C 331.229,457.863 329.896,455.029 333.5,449.5 Z"/></g>
<g><path style="opacity:1" fill="#bbb197" d="M 249.5,446.5 C 250.651,451.65 250.817,456.984 250,462.5C 248.698,461.915 247.531,461.249 246.5,460.5C 247.5,460.5 248.5,460.5 249.5,460.5C 249.5,455.833 249.5,451.167 249.5,446.5 Z"/></g>
<g><path style="opacity:1" fill="#636451" d="M 350.5,443.5 C 356.419,443.087 360.085,445.754 361.5,451.5C 359.804,455.201 356.804,456.868 352.5,456.5C 352.5,458.167 352.5,459.833 352.5,461.5C 351.5,461.5 350.5,461.5 349.5,461.5C 349.211,455.409 349.545,449.409 350.5,443.5 Z"/></g>
<g><path style="opacity:1" fill="#eadec0" d="M 352.5,446.5 C 355.665,446.752 357.665,448.418 358.5,451.5C 356.696,452.768 354.696,453.435 352.5,453.5C 352.5,451.167 352.5,448.833 352.5,446.5 Z"/></g>
<g><path style="opacity:1" fill="#dccfb1" d="M 290.5,446.5 C 291.167,446.5 291.5,446.833 291.5,447.5C 291.34,449.199 291.506,450.866 292,452.5C 294.087,453.794 296.254,454.961 298.5,456C 299.337,457.011 299.67,458.178 299.5,459.5C 297.051,458.943 294.718,458.943 292.5,459.5C 292.709,460.086 293.043,460.586 293.5,461C 299.187,463.037 301.854,461.204 301.5,455.5C 302.461,457.265 302.795,459.265 302.5,461.5C 299.016,463.616 295.349,463.949 291.5,462.5C 289.778,459.251 290.778,457.418 294.5,457C 293.333,455.167 291.833,453.667 290,452.5C 289.211,450.288 289.378,448.288 290.5,446.5 Z"/></g>
<g><path style="opacity:1" fill="#636452" d="M 200.5,460.5 C 200.5,460.833 200.5,461.167 200.5,461.5C 196.604,460.548 193.271,458.548 190.5,455.5C 190.433,457.424 190.1,459.424 189.5,461.5C 188.914,461.291 188.414,460.957 188,460.5C 186.823,456.48 186.656,452.48 187.5,448.5C 190.5,451.167 193.5,453.833 196.5,456.5C 197.487,453.232 197.82,449.898 197.5,446.5C 198.5,446.5 199.5,446.5 200.5,446.5C 200.5,451.167 200.5,455.833 200.5,460.5 Z"/></g>
<g><path style="opacity:1" fill="#555644" d="M 208.5,460.5 C 207.272,455.519 207.272,450.519 208.5,445.5C 209.227,449.511 209.893,453.511 210.5,457.5C 213.5,458.167 216.5,458.833 219.5,459.5C 215.893,460.489 212.226,460.823 208.5,460.5 Z"/></g>
<g><path style="opacity:1" fill="#7c7862" d="M 228.5,446.5 C 229.817,452.346 229.817,458.346 228.5,464.5C 227.893,464.376 227.56,464.043 227.5,463.5C 228.489,458.025 228.822,452.358 228.5,446.5 Z"/></g>
<g><path style="opacity:1" fill="#5c5d4a" d="M 301.5,455.5 C 301.854,461.204 299.187,463.037 293.5,461C 293.043,460.586 292.709,460.086 292.5,459.5C 294.718,458.943 297.051,458.943 299.5,459.5C 299.67,458.178 299.337,457.011 298.5,456C 296.254,454.961 294.087,453.794 292,452.5C 291.506,450.866 291.34,449.199 291.5,447.5C 297.073,443.918 300.739,445.251 302.5,451.5C 300.332,450.821 298.332,449.821 296.5,448.5C 295.263,448.556 294.263,449.056 293.5,450C 296.407,451.609 299.073,453.442 301.5,455.5 Z"/></g>
<g><path style="opacity:0.999" fill="#fcebd3" d="M 96.5,445.5 C 100.74,445.704 104.24,447.371 107,450.5C 107.333,450.167 107.667,449.833 108,449.5C 108.84,452.464 109.84,452.797 111,450.5C 113.098,455.056 116.598,457.723 121.5,458.5C 121.5,459.5 121.5,460.5 121.5,461.5C 123.167,461.5 124.833,461.5 126.5,461.5C 126.5,462.5 126.5,463.5 126.5,464.5C 128.655,464.372 130.655,464.872 132.5,466C 134.675,469.045 137.675,470.211 141.5,469.5C 141.281,470.675 141.614,471.675 142.5,472.5C 150.39,476.002 158.057,479.669 165.5,483.5C 139.899,475.207 116.899,462.54 96.5,445.5 Z"/></g>
<g><path style="opacity:0.133" fill="#fcf6ed" d="M 368.5,468.5 C 365.227,471.144 361.56,473.311 357.5,475C 352.023,477.742 346.356,479.908 340.5,481.5C 341.429,480.685 342.429,479.852 343.5,479C 351.825,475.505 360.158,472.005 368.5,468.5 Z"/></g>
<g><path style="opacity:0.071" fill="#fcf7f0" d="M 340.5,481.5 C 336.201,483.935 331.534,485.602 326.5,486.5C 330.761,483.927 335.428,482.26 340.5,481.5 Z"/></g>
<g><path style="opacity:0.1" fill="#fcf3e5" d="M 165.5,483.5 C 170.313,482.741 174.313,484.075 177.5,487.5C 173.085,487.139 169.085,485.806 165.5,483.5 Z"/></g>
<g><path style="opacity:0.008" fill="#fdfaf5" d="M 326.5,486.5 C 324.485,487.924 322.152,488.59 319.5,488.5C 321.515,487.076 323.848,486.41 326.5,486.5 Z"/></g>
<g><path style="opacity:0.067" fill="#fcf6ee" d="M 177.5,487.5 C 180.228,487.171 182.562,487.837 184.5,489.5C 181.848,489.59 179.515,488.924 177.5,487.5 Z"/></g>
<g><path style="opacity:0.557" fill="#fcf5eb" d="M 184.5,489.5 C 188.57,489.432 192.237,490.432 195.5,492.5C 191.573,492.074 187.907,491.074 184.5,489.5 Z"/></g>
<g><path style="opacity:0.012" fill="#fdfaf5" d="M 319.5,488.5 C 317.485,489.924 315.152,490.59 312.5,490.5C 314.515,489.076 316.848,488.41 319.5,488.5 Z"/></g>
<g><path style="opacity:0.024" fill="#fdf9f3" d="M 312.5,490.5 C 309.781,491.913 306.781,492.58 303.5,492.5C 306.171,490.882 309.171,490.215 312.5,490.5 Z"/></g>
<g><path style="opacity:0.169" fill="#fcf9f2" d="M 195.5,492.5 C 203.071,493.204 210.404,494.538 217.5,496.5C 209.888,496.042 202.554,494.709 195.5,492.5 Z"/></g>
<g><path style="opacity:0.187" fill="#fbf5eb" d="M 294.5,494.5 C 287.399,496.255 280.066,497.421 272.5,498C 258.167,498.667 243.833,498.667 229.5,498C 225.644,497.823 221.977,497.323 218.5,496.5C 230.339,496.576 242.173,496.909 254,497.5C 267.529,496.83 281.029,495.83 294.5,494.5 Z"/></g>
</svg>
